<?xml version="1.0" encoding="iso-8859-1"?>
<!-- Generator: Adobe Illustrator 19.0.0, SVG Export Plug-In . SVG Version: 6.00 Build 0)  -->
<svg version="1.1" id="Layer_1" xmlns="http://www.w3.org/2000/svg" xmlns:xlink="http://www.w3.org/1999/xlink" x="0px" y="0px"
	 viewBox="0 0 495 495" style="enable-background:new 0 0 495 495;" xml:space="preserve">
<g>
	<path style="fill:#2488FF;" d="M247.5,495H495v-40H382.432C343.619,480.291,297.28,495,247.5,495z"/>
	<path style="fill:#00479B;" d="M247.5,405c-27.57,0-50-22.43-50-50c0-27.57,22.43-50,50-50V190c-27.57,0-50-22.43-50-50
		c0-27.57,22.43-50,50-50V0C110.81,0,0,110.81,0,247.5S110.81,495,247.5,495V405z M140,297.5c-27.57,0-50-22.43-50-50
		c0-27.57,22.43-50,50-50s50,22.43,50,50C190,275.07,167.57,297.5,140,297.5z"/>
	<path style="fill:#003068;" d="M495,247.5C495,110.81,384.19,0,247.5,0v90c27.57,0,50,22.43,50,50c0,27.57-22.43,50-50,50v115
		c27.57,0,50,22.43,50,50c0,27.57-22.43,50-50,50v90c49.78,0,96.119-14.709,134.932-40C450.195,410.845,495,334.41,495,247.5z
		 M355,197.5c27.57,0,50,22.43,50,50c0,27.57-22.43,50-50,50s-50-22.43-50-50C305,219.93,327.43,197.5,355,197.5z"/>
	<path style="fill:#46F8FF;" d="M197.5,140c0,27.57,22.43,50,50,50s50-22.43,50-50c0-27.57-22.43-50-50-50S197.5,112.43,197.5,140z"
		/>
	<path style="fill:#46F8FF;" d="M140,197.5c-27.57,0-50,22.43-50,50c0,27.57,22.43,50,50,50s50-22.43,50-50
		C190,219.93,167.57,197.5,140,197.5z"/>
	<path style="fill:#46F8FF;" d="M197.5,355c0,27.57,22.43,50,50,50s50-22.43,50-50c0-27.57-22.43-50-50-50S197.5,327.43,197.5,355z"
		/>
	<path style="fill:#46F8FF;" d="M355,297.5c27.57,0,50-22.43,50-50c0-27.57-22.43-50-50-50s-50,22.43-50,50
		C305,275.07,327.43,297.5,355,297.5z"/>
</g>
<g>
</g>
<g>
</g>
<g>
</g>
<g>
</g>
<g>
</g>
<g>
</g>
<g>
</g>
<g>
</g>
<g>
</g>
<g>
</g>
<g>
</g>
<g>
</g>
<g>
</g>
<g>
</g>
<g>
</g>
</svg>
