<svg width="1335" height="1368" viewBox="0 0 1368 1368" xmlns="http://www.w3.org/2000/svg">

 <g>
  <title/>
  <g transform="translate(-26.7029 -26.7029) matrix(0.957461 0 0 0.957461 57.4863 58.8702)" id="imagebot_50">
   <path fill="#7f7f7f" stroke="#000000" stroke-width="11.5" stroke-linejoin="round" stroke-linecap="round" id="imagebot_49" d="M 16.071 705.383 L 16.071 705.383 C 5.02301 332.659 287.819 21.92 647.714 11.328 L 647.714 11.328 C 820.542 6.241 988.402 72.466 1114.36 195.433 C 1240.32 318.399 1314.06 488.037 1319.36 667.024 L 1319.36 667.024 C 1330.41 1039.74 1047.62 1350.48 687.724 1361.08 L 687.724 1361.08 C 327.829 1371.67 27.12 1078.1 16.071 705.383 Z"/>
   <path fill="none" fill-opacity="null" stroke="#b2b2b2" stroke-width="21" stroke-dasharray="null" stroke-linejoin="round" stroke-linecap="round" d="M 279.875 147.788 L 1056.76 150.92" id="imagebot_48"/>
   <path fill="none" fill-opacity="null" stroke="#b2b2b2" stroke-width="42" stroke-dasharray="null" stroke-linejoin="round" stroke-linecap="round" d="M 26.822 647.342 L 1305.7 652.11" id="imagebot_46"/>
   <path fill="none" fill-opacity="null" stroke="#b2b2b2" stroke-width="42" stroke-dasharray="null" stroke-linejoin="round" stroke-linecap="round" d="M 26.822 709.331 L 1305.7 714.099" id="imagebot_45"/>
   <line fill="none" stroke="#000000" stroke-width="29.5" stroke-dasharray="null" stroke-linejoin="round" stroke-linecap="round" x1="234.47032" y1="769.0056" x2="1536.2358" y2="773.77397" transform="translate(-236.068 -140.737) matrix(0.982416 0 0 1 32.5425 47.6837)" id="imagebot_44"/>
   <path fill="none" fill-opacity="null" stroke="#b2b2b2" stroke-width="22.5" stroke-dasharray="null" stroke-linejoin="round" stroke-linecap="round" d="M 41.015 547.206 L 1306.16 551.974" id="imagebot_43"/>
   <path fill="none" fill-opacity="null" stroke="#b2b2b2" stroke-width="31" stroke-dasharray="null" stroke-linejoin="round" stroke-linecap="round" d="M 125.351 326.778 L 1216.85 331.061" id="imagebot_42"/>
   <path fill="#b2b2b2" stroke="#000000" stroke-width="6" stroke-dasharray="null" stroke-linejoin="round" stroke-linecap="round" stroke-opacity="null" id="imagebot_41" d="M139.147,223.552L139.147,223.552C139.147,176.937 176.937,139.147 223.552,139.147L223.552,139.147C245.938,139.147 267.40701,148.03999 283.23599,163.869C299.065,179.698 307.957,201.16701 307.957,223.552L307.957,223.552C307.957,270.168 270.168,307.957 223.552,307.957L223.552,307.957C176.937,307.957 139.147,270.168 139.147,223.552z" transform="translate(-236.068 -140.737) matrix(1.78971 0 0 1.78971 720.024 157.356)"/>
   <path fill="#b2b2b2" stroke="#000000" stroke-width="10" stroke-dasharray="null" stroke-linejoin="round" stroke-linecap="round" stroke-opacity="null" id="imagebot_40" d="M236.869,276.53699L236.869,276.53699C236.869,254.629 254.629,236.869 276.53699,236.869L276.53699,236.869C287.05801,236.869 297.147,241.048 304.586,248.48801C312.026,255.927 316.20499,266.017 316.20499,276.53699L316.20499,276.53699C316.20499,298.44501 298.44501,316.20499 276.53699,316.20499L276.53699,316.20499C254.629,316.20499 236.869,298.44501 236.869,276.53699z" transform="translate(-236.068 -140.737) matrix(1.78971 0 0 1.78971 634.193 61.9889)"/>
   <path fill="#b2b2b2" stroke="#000000" stroke-width="6.5" stroke-dasharray="null" stroke-linejoin="round" stroke-linecap="round" stroke-opacity="null" d="M286.11801,306.28101L286.11801,306.28101C286.11801,295.14499 295.14499,286.11801 306.28101,286.11801L306.28101,286.11801C311.629,286.11801 316.758,288.242 320.539,292.02399C324.32101,295.80499 326.44501,300.93399 326.44501,306.28101L326.44501,306.28101C326.44501,317.418 317.418,326.44501 306.28101,326.44501L306.28101,326.44501C295.14499,326.44501 286.11801,317.418 286.11801,306.28101z" id="imagebot_39" transform="translate(-236.068 -140.737) matrix(1.78971 0 0 1.78971 581.741 9.53683)"/>
   <line fill="none" stroke="#000000" stroke-width="10" stroke-dasharray="null" stroke-linejoin="round" stroke-linecap="round" stroke-opacity="null" x1="1154.76606" y1="497.20841" x2="1192.91304" y2="435.21958" id="imagebot_38" transform="translate(-236.068 -140.737) translate(0 -4.76837)"/>
   <line transform="translate(-236.068 -140.737)" fill="none" stroke="#000000" stroke-width="10" stroke-dasharray="null" stroke-linejoin="round" stroke-linecap="round" stroke-opacity="null" x1="1202.44978" y1="535.35539" x2="1254.90187" y2="497.20841" id="imagebot_37"/>
   <line fill="none" stroke="#000000" stroke-width="10" stroke-dasharray="null" stroke-linejoin="round" stroke-linecap="round" stroke-opacity="null" x1="1207.21815" y1="583.03911" x2="1269.20699" y2="606.88096" id="imagebot_36" transform="translate(-236.068 -140.737) translate(-4.76837 0)"/>
   <line fill="none" stroke="#000000" stroke-width="10" stroke-dasharray="null" stroke-linejoin="round" stroke-linecap="round" stroke-opacity="null" x1="1111.85072" y1="497.20841" x2="1078.47212" y2="425.68284" id="imagebot_35" transform="translate(-236.068 -140.737) translate(0 -4.76837)"/>
   <line fill="none" stroke="#000000" stroke-width="10" stroke-dasharray="null" stroke-linejoin="round" stroke-linecap="round" stroke-opacity="null" x1="1164.30281" y1="635.49119" x2="1211.98653" y2="683.17491" id="imagebot_34" transform="rotate(7.59462 952.072 513.828) matrix(1 0 0 1 -236.068 -145.505)"/>
   <line transform="translate(-236.068 -140.737)" fill="none" stroke="#000000" stroke-width="10" stroke-dasharray="null" stroke-linejoin="round" stroke-linecap="round" stroke-opacity="null" fill-opacity="null" x1="1068.93537" y1="516.2819" x2="1006.94654" y2="473.36656" id="imagebot_33"/>
   <line transform="translate(-236.068 -140.737)" fill="none" stroke="#000000" stroke-width="10" stroke-dasharray="null" stroke-linejoin="round" stroke-linecap="round" stroke-opacity="null" fill-opacity="null" x1="1054.63026" y1="568.73399" x2="973.56794" y2="573.50236" id="imagebot_32"/>
   <line fill="none" stroke="#000000" stroke-width="10" stroke-dasharray="null" stroke-linejoin="round" stroke-linecap="round" stroke-opacity="null" fill-opacity="null" x1="1073.70375" y1="611.64934" x2="1006.94654" y2="664.10142" id="imagebot_31" transform="translate(-236.068 -140.737) matrix(1 0 0 1 4.76837 -4.76837)"/>
   <line fill="none" stroke="#000000" stroke-width="10" stroke-dasharray="null" stroke-linejoin="round" stroke-linecap="round" stroke-opacity="null" fill-opacity="null" x1="1116.61909" y1="640.25957" x2="1107.08235" y2="711.78514" id="imagebot_30" transform="translate(-236.068 -140.737) translate(0 -4.76837)"/>
   <path fill="none" stroke="#b2b2b2" stroke-width="31" stroke-dasharray="null" stroke-linejoin="round" stroke-linecap="round" fill-opacity="null" d="M501.49899,478.13501L425.20499,668.87L501.49899,478.13501z" id="imagebot_29" transform="rotate(349.695 227.284 432.766) translate(-236.068 -140.737)"/>
   <path fill="none" stroke="#b2b2b2" stroke-width="31" stroke-dasharray="null" stroke-linejoin="round" stroke-linecap="round" fill-opacity="null" d="M501.49899,478.13501L425.20499,668.87L501.49899,478.13501z" transform="rotate(349.695 365.567 437.534) matrix(1 0 0 1 -97.785 -135.969)" id="imagebot_28"/>
   <path fill="none" stroke="#b2b2b2" stroke-width="31" stroke-dasharray="null" stroke-linejoin="round" stroke-linecap="round" fill-opacity="null" d="M501.49899,478.13501L425.20499,668.87L501.49899,478.13501z" transform="rotate(349.695 623.058 437.534) matrix(1 0 0 1 159.707 -135.969)" id="imagebot_27"/>
   <path fill="none" stroke="#b2b2b2" stroke-width="31" stroke-dasharray="null" stroke-linejoin="round" stroke-linecap="round" fill-opacity="null" d="M501.49899,478.13501L425.20499,668.87L501.49899,478.13501z" transform="rotate(324.345 1176.19 437.534) matrix(1 0 0 1 712.838 -135.969)" id="imagebot_26"/>
   <path fill="none" stroke="#b2b2b2" stroke-width="31" stroke-dasharray="null" stroke-linejoin="round" stroke-linecap="round" fill-opacity="null" d="M454.37399,600.58099L417.24799,693.396L454.37399,600.58099z" id="imagebot_25" transform="rotate(355.515 342.084 576.758) matrix(0.983869 -0.178888 0.178888 0.983869 -202.441 18.159)"/>
   <path fill="none" stroke="#b2b2b2" stroke-width="31" stroke-dasharray="null" stroke-linejoin="round" stroke-linecap="round" fill-opacity="null" d="M454.37363,600.58118L417.24753,693.39636L454.37363,600.58118z" transform="rotate(355.515 594.813 581.529) matrix(0.983869 -0.178888 0.178888 0.983869 50.283 22.927)" id="imagebot_24"/>
   <path fill="none" stroke="#b2b2b2" stroke-width="31" stroke-dasharray="null" stroke-linejoin="round" stroke-linecap="round" fill-opacity="null" d="M440.92499,622.23102L409.815,700.008L440.92499,622.23102z" id="imagebot_23" transform="rotate(352.666 998.39 607.382) matrix(0.966868 -0.255277 0.255277 0.966868 418.349 76.755)"/>
   <path fill="none" stroke="#b2b2b2" stroke-width="31" stroke-dasharray="null" stroke-linejoin="round" stroke-linecap="round" fill-opacity="null" d="M440.92532,622.23132L409.81461,700.00812L440.92532,622.23132z" transform="rotate(352.666 1203.43 607.381) matrix(0.966868 -0.255277 0.255277 0.966868 623.389 76.755)" id="imagebot_22"/>
   <path fill="none" stroke="#b2b2b2" stroke-width="31" stroke-dasharray="null" stroke-linejoin="round" stroke-linecap="round" fill-opacity="null" d="M472.353,541.28198L416.29501,681.42798L472.353,541.28198z" id="imagebot_21" transform="rotate(347.019 515.743 239.761) matrix(0.983869 -0.178888 0.178888 0.983869 -30.779 -282.249)"/>
   <path fill="none" stroke="#b2b2b2" stroke-width="31" stroke-dasharray="null" stroke-linejoin="round" stroke-linecap="round" fill-opacity="null" d="M436.931,590.94598L397.20999,690.24701L436.931,590.94598z" id="imagebot_20" transform="translate(-236.068 -140.737) matrix(0.999998 -0.00209065 0.00209065 0.999998 365.368 -413.715)"/>
   <path fill="none" stroke="#b2b2b2" stroke-width="31" stroke-dasharray="null" stroke-linejoin="round" stroke-linecap="round" fill-opacity="null" d="M281.16699,669.84497L226.146,718.22998L281.16699,669.84497z" id="imagebot_19" transform="rotate(347.342 384.41 105.675) matrix(0.999998 -0.00209065 0.00209065 0.999998 129.3 -587.831)"/>
   <path fill="none" fill-opacity="null" stroke="#b2b2b2" stroke-width="22.5" stroke-dasharray="null" stroke-linejoin="round" stroke-linecap="round" d="M 45.499 847.329 L 1278.65 851.977" id="imagebot_18"/>
   <path fill="none" fill-opacity="null" stroke="#b2b2b2" stroke-width="43" stroke-dasharray="null" stroke-linejoin="round" stroke-linecap="round" d="M 143.575 1055.73 L 1190.41 1059.89" id="imagebot_17"/>
   <path fill="none" fill-opacity="null" stroke="#b2b2b2" stroke-width="22.5" stroke-dasharray="null" stroke-linejoin="round" stroke-linecap="round" d="M 279.339 1216.35 L 1057.94 1219.79" id="imagebot_16"/>
   <path fill="none" stroke="#b2b2b2" stroke-width="31" stroke-dasharray="null" stroke-linejoin="round" stroke-linecap="round" fill-opacity="null" d="M454.37363,600.58118L417.24753,693.39636L454.37363,600.58118z" transform="rotate(355.515 151.35 781.802) matrix(0.983869 -0.178888 0.178888 0.983869 -393.175 223.199)" id="imagebot_15"/>
   <path fill="none" stroke="#b2b2b2" stroke-width="27" stroke-dasharray="null" stroke-linejoin="round" stroke-linecap="round" fill-opacity="null" d="M454.37363,600.58118L417.24753,693.39636L454.37363,600.58118z" transform="rotate(350.725 451.752 781.791) matrix(0.983869 -0.178888 0.178888 0.983869 -92.768 223.199)" id="imagebot_14"/>
   <path fill="none" stroke="#b2b2b2" stroke-width="27" stroke-dasharray="null" stroke-linejoin="round" stroke-linecap="round" fill-opacity="null" d="M454.37363,600.58118L417.24753,693.39636L454.37363,600.58118z" transform="rotate(350.725 542.35 781.79) matrix(0.983869 -0.178888 0.178888 0.983869 -2.16899 223.199)" id="imagebot_13"/>
   <path fill="none" stroke="#b2b2b2" stroke-width="27" stroke-dasharray="null" stroke-linejoin="round" stroke-linecap="round" fill-opacity="null" d="M454.37363,600.58118L417.24753,693.39636L454.37363,600.58118z" transform="rotate(350.725 599.57 781.79) matrix(0.983869 -0.178888 0.178888 0.983869 55.052 223.199)" id="imagebot_12"/>
   <path fill="none" stroke="#b2b2b2" stroke-width="27" stroke-dasharray="null" stroke-linejoin="round" stroke-linecap="round" fill-opacity="null" d="M454.37363,600.58118L417.24753,693.39636L454.37363,600.58118z" transform="rotate(352.624 919.054 781.789) matrix(0.983869 -0.178888 0.178888 0.983869 374.532 223.199)" id="imagebot_11"/>
   <path fill="none" stroke="#b2b2b2" stroke-width="32" stroke-dasharray="null" stroke-linejoin="round" stroke-linecap="round" fill-opacity="null" d="M454.37363,600.58118L417.24753,693.39636L454.37363,600.58118z" transform="rotate(356.971 1152.71 781.799) matrix(0.983869 -0.178888 0.178888 0.983869 608.182 223.199)" id="imagebot_10"/>
   <path fill="none" stroke="#b2b2b2" stroke-width="31" stroke-dasharray="null" stroke-linejoin="round" stroke-linecap="round" fill-opacity="null" d="M496.905,538.12201L432.341,699.53003L496.905,538.12201z" id="imagebot_9" transform="rotate(355.504 158.488 949.803) matrix(0.879224 -0.476408 0.476408 0.879224 -544.835 627.065)"/>
   <path fill="none" stroke="#b2b2b2" stroke-width="31" stroke-dasharray="null" stroke-linejoin="round" stroke-linecap="round" fill-opacity="null" d="M494.13339,535.89221L432.59827,689.73022L494.13339,535.89221z" transform="rotate(3.62665 354.787 945.113) matrix(0.895424 -0.445214 0.445214 0.895424 -332.954 602.683)" id="imagebot_8"/>
   <path fill="none" stroke="#b2b2b2" stroke-width="30.5" stroke-dasharray="null" stroke-linejoin="round" stroke-linecap="round" fill-opacity="null" d="M494.13339,535.89221L432.59827,689.73022L494.13339,535.89221z" transform="rotate(3.62665 493.069 945.113) matrix(0.895424 -0.445214 0.445214 0.895424 -194.672 602.683)" id="imagebot_7"/>
   <path fill="none" stroke="#b2b2b2" stroke-width="24" stroke-dasharray="null" stroke-linejoin="round" stroke-linecap="round" fill-opacity="null" d="M494.13339,535.89221L432.59827,689.73022L494.13339,535.89221z" transform="rotate(3.62665 602.742 945.113) matrix(0.895424 -0.445214 0.445214 0.895424 -84.999 602.683)" id="imagebot_6"/>
   <path fill="none" stroke="#b2b2b2" stroke-width="30.5" stroke-dasharray="null" stroke-linejoin="round" stroke-linecap="round" fill-opacity="null" d="M501.931,528.02399L437.353,689.46997L501.931,528.02399z" id="imagebot_5" transform="rotate(3.85339 964.582 943.703) matrix(0.921793 -0.387683 0.387683 0.921793 295.667 564.634)"/>
   <path fill="none" stroke="#b2b2b2" stroke-width="30.5" stroke-dasharray="null" stroke-linejoin="round" stroke-linecap="round" fill-opacity="null" d="M501.93076,528.02399L437.35263,689.46954L501.93076,528.02399z" transform="rotate(7.3934 1131.47 948.473) matrix(0.921793 -0.387683 0.387683 0.921793 462.56 569.402)" id="imagebot_4"/>
   <path fill="none" stroke="#b2b2b2" stroke-width="31" stroke-dasharray="null" stroke-linejoin="round" stroke-linecap="round" fill-opacity="null" d="M497.763,585.44202L445.26501,716.68701L497.763,585.44202z" id="imagebot_3" transform="rotate(356.59 315.317 1135.23) matrix(0.839173 -0.543864 0.543864 0.839173 -434.456 845.316)"/>
   <path fill="none" stroke="#b2b2b2" stroke-width="31" stroke-dasharray="null" stroke-linejoin="round" stroke-linecap="round" fill-opacity="null" d="M497.76257,585.44208L445.26465,716.68707L497.76257,585.44208z" transform="rotate(13.168 782.612 1135.23) matrix(0.839173 -0.543864 0.543864 0.839173 32.844 845.316)" id="imagebot_2"/>
   <path fill="#ccc" stroke="#000000" stroke-width="28" stroke-dasharray="null" stroke-linejoin="round" stroke-linecap="round" stroke-opacity="null" fill-opacity="0" id="imagebot_1" d="M 6.25 683.987 L 6.25 683.987 C 6.25 309.683 302.401 6.25 667.721 6.25 L 667.721 6.25 C 843.152 6.25 1011.4 77.654 1135.45 204.755 C 1259.5 331.855 1329.19 504.241 1329.19 683.987 L 1329.19 683.987 C 1329.19 1058.29 1033.04 1361.72 667.721 1361.72 L 667.721 1361.72 C 302.401 1361.72 6.25 1058.29 6.25 683.987 Z"/>
  </g>
 </g>
</svg>