<svg height="512" viewBox="0 0 512 512" width="512" xmlns="http://www.w3.org/2000/svg"><g id="filled_outline" data-name="filled outline"><path d="m401.818 128.076a24 24 0 0 0 -33.874-33.911 32 32 0 0 0 -48.379-25.623 23.994 23.994 0 0 0 -40.777-21.259 32 32 0 0 0 -62.435 3.97 31.991 31.991 0 0 0 -53.021 6.528 24 24 0 0 0 -41 24.554 24 24 0 0 0 -32.723 30.305 32 32 0 0 0 6.391 63.36h304a24 24 0 0 0 1.818-47.924z" fill="#ffcd01"/><path d="m401.818 128.076a24 24 0 0 0 -33.874-33.911 31.965 31.965 0 0 0 -13.325-24.191 581.066 581.066 0 0 1 -289.628 81.951 32.012 32.012 0 0 0 31.009 24.075h304a24 24 0 0 0 1.818-47.924z" fill="#ffba01"/><path d="m128 440h240l40-240h-320z" fill="#e6e6e6"/><path d="m343.064 200c-31.251 94.671-120.422 163-225.564 163-.782 0-1.558-.022-2.338-.03l12.838 77.03h240l40-240z" fill="#d3d3d3"/><path d="m216 200 8 240h48l8-240z" fill="#ff2b63"/><path d="m220.65 339.489 3.35 100.511h48l4.606-138.18a237.938 237.938 0 0 1 -55.956 37.669z" fill="#e5235f"/><path d="m344 200-24 240h48l40-240z" fill="#e5235f"/><path d="m280 464v-64a24 24 0 0 1 -24-24h-208a24 24 0 0 1 -24 24v64a24 24 0 0 1 24 24h208a24 24 0 0 1 24-24z" fill="#48bdff"/><path d="m256 376h-40.706a159.164 159.164 0 0 1 -191.294 80.294v7.706a24 24 0 0 1 24 24h208a24 24 0 0 1 24-24v-64a24 24 0 0 1 -24-24z" fill="#3ba4f2"/><path d="m88 200 40 240h48l-24-240z" fill="#ff2b63"/><path d="m117.5 363c-.782 0-1.558-.022-2.338-.03l12.838 77.03h48l-8.235-82.348a238.371 238.371 0 0 1 -50.265 5.348z" fill="#e5235f"/><rect fill="#b3b3b3" height="32" rx="16" width="352" x="72" y="168"/><path d="m88 376h128v112h-128z" fill="#e6e6e6"/><path d="m464 488h-112l-24-216h160z" fill="#703f16"/><path d="m472 64a23.948 23.948 0 0 0 -8.928-18.672 16 16 0 1 0 -30.144 0 24 24 0 0 0 24.3 40.829 16 16 0 1 0 14.772-22.157z" fill="#ffcd01"/><path d="m456 408c5.668 0 11.307-.125 16.926-.331l2.316-20.846a452.791 452.791 0 0 1 -139.491-45.065l5.749 51.732a456.78 456.78 0 0 0 114.5 14.51z" fill="#ffcd01"/><path d="m72 56c0-.708-.037-1.407-.1-2.1a15.993 15.993 0 1 0 -21.8-21.8c-.692-.06-1.391-.1-2.1-.1a24 24 0 1 0 24 24z" fill="#ffcd01"/><path d="m72 312c-.455 0-.9.031-1.348.068a23.938 23.938 0 0 0 -2.731-5.422 15.993 15.993 0 1 0 -27.921-10.646c0 .455.031.9.068 1.348a24 24 0 1 0 21.3 42.586 15.993 15.993 0 1 0 10.632-27.934z" fill="#ffcd01"/><path d="m88 463.291v24.709h128v-112h-.706a159.069 159.069 0 0 1 -127.294 87.291z" fill="#d3d3d3"/><path d="m176 400h-48a8 8 0 0 0 0 16h16v40a8 8 0 0 0 16 0v-40h16a8 8 0 0 0 0-16z" fill="#fdc47d"/><path d="m329.778 288h156.444l1.778-16h-160z" fill="#603813"/><rect fill="#b3b3b3" height="32" rx="16" width="176" x="320" y="248"/><g fill="#ffba01"><path d="m80 40a15.99 15.99 0 0 0 -9.425-14.575 15.954 15.954 0 0 1 -6.675 20.475c.06.692.1 1.391.1 2.1a24 24 0 0 1 -36.494 20.494 24 24 0 0 0 44.494-12.494c0-.708-.037-1.407-.1-2.1a15.985 15.985 0 0 0 8.1-13.9z"/><path d="m456 32a15.942 15.942 0 0 1 -.928 5.328 23.948 23.948 0 0 1 8.928 18.672 15.914 15.914 0 0 1 7.156 1.7 24.02 24.02 0 0 0 -8.084-12.376 15.935 15.935 0 0 0 -8.5-19.9 15.9 15.9 0 0 1 1.428 6.576z"/><path d="m478.575 65.425a15.985 15.985 0 0 1 -21.149 21.155 15.993 15.993 0 1 0 21.149-21.155z"/><path d="m449.232 78.157a24.027 24.027 0 0 1 -21.726-1.663 23.992 23.992 0 0 0 29.34 9.813 16.053 16.053 0 0 1 -7.614-8.15z"/><path d="m64 288a15.92 15.92 0 0 1 -4.079 10.646 23.938 23.938 0 0 1 2.731 5.422c.445-.037.893-.068 1.348-.068a15.935 15.935 0 0 1 5.259.9 15.933 15.933 0 0 0 -6.684-23.478 15.9 15.9 0 0 1 1.425 6.578z"/><path d="m78.575 313.425a15.981 15.981 0 0 1 -25.207 18.509 24.011 24.011 0 0 1 -25.862.56 24.006 24.006 0 0 0 33.862 7.44 15.988 15.988 0 1 0 17.207-26.509z"/></g><path d="m152 464a8 8 0 0 0 8-8v-17.915a158.75 158.75 0 0 1 -16 9.188v8.727a8 8 0 0 0 8 8z" fill="#fcae60"/><circle cx="368" cy="136" r="8"/><circle cx="320" cy="120" r="8"/><circle cx="272" cy="88" r="8"/><circle cx="264" cy="136" r="8"/><circle cx="224" cy="96" r="8"/><circle cx="192" cy="80" r="8"/><circle cx="160" cy="104" r="8"/><circle cx="192" cy="128" r="8"/><circle cx="120" cy="136" r="8"/><circle cx="56" cy="432" r="8"/><circle cx="248" cy="432" r="8"/><path d="m176 400h-48a8 8 0 0 0 0 16h16v40a8 8 0 0 0 16 0v-40h16a8 8 0 0 0 0-16z"/><path d="m448 96a32.1 32.1 0 0 0 5.667-.5 24 24 0 1 0 25.592-38.378 31.8 31.8 0 0 0 -7.41-14.459 23.458 23.458 0 0 0 .151-2.663 24 24 0 0 0 -48 0 23.475 23.475 0 0 0 .151 2.664 32 32 0 0 0 23.849 53.336zm-10.043-44.451a8 8 0 0 0 2.513-8.89 8 8 0 1 1 15.06 0 8 8 0 0 0 2.513 8.888 15.945 15.945 0 0 1 5.957 12.453 8 8 0 0 0 8 8 8 8 0 1 1 -7.386 11.075 7.993 7.993 0 0 0 -10.463-4.3 16 16 0 0 1 -16.194-27.225z"/><path d="m480 240h-24v-52.687l29.657-29.656a8 8 0 0 0 -11.314-11.314l-32 32a8 8 0 0 0 -2.343 5.657v56h-30.556l5.5-33.029a23.974 23.974 0 0 0 11.981-37.7 31.958 31.958 0 0 0 -12.961-46.039 32.008 32.008 0 0 0 -40.564-41.432 40.021 40.021 0 0 0 -46.181-24.829 32.043 32.043 0 0 0 -45.1-21.826 39.968 39.968 0 0 0 -69.637 2.5 40.027 40.027 0 0 0 -50.51 7.9 31.978 31.978 0 0 0 -49.972 26.455 32.007 32.007 0 0 0 -31.834 35.263 39.973 39.973 0 0 0 -12.849 64.584 23.978 23.978 0 0 0 13.735 35.124l26.838 161.029h-59.89a8 8 0 0 0 -8 8 16.019 16.019 0 0 1 -16 16 8 8 0 0 0 -8 8v64a8 8 0 0 0 8 8 16.019 16.019 0 0 1 16 16 8 8 0 0 0 8 8h208a8 8 0 0 0 8-8 16.019 16.019 0 0 1 16-16 8 8 0 0 0 8-8v-16h51.506l4.543 40.883a8 8 0 0 0 7.951 7.117h112a8 8 0 0 0 7.951-7.117l22.894-206.047a23.985 23.985 0 0 0 -14.845-42.836zm-14.26 159.9c-3.25.07-6.5.105-9.74.105a449.864 449.864 0 0 1 -107.163-12.909l-3.52-31.683a459.726 459.726 0 0 0 121.131 38.118zm-122.516-63.322-5.397-48.578h140.346l-9.955 89.6a443.846 443.846 0 0 1 -124.994-41.022zm144.776-72.578a8.009 8.009 0 0 1 -8 8h-144a8 8 0 0 1 0-16h144a8.009 8.009 0 0 1 8 8zm-139.96-24 3.2-32h47.316l-5.333 32zm-256.84-119.52a8 8 0 0 0 5.873-10.723 16 16 0 0 1 21.813-20.2 8 8 0 0 0 10.668-10.668 15.831 15.831 0 0 1 -1.554-6.889 16 16 0 0 1 28.892-9.474 8 8 0 0 0 13.608-1.185 23.991 23.991 0 0 1 39.769-4.9 8 8 0 0 0 14-4.013 24 24 0 0 1 46.824-2.972 8 8 0 0 0 13.436 3.4 15.994 15.994 0 0 1 27.471 11.144 16.131 16.131 0 0 1 -.292 3.035 8 8 0 0 0 11.972 8.365 24 24 0 0 1 36.277 19.215 8 8 0 0 0 13.342 5.491 16 16 0 0 1 22.581 22.607 8 8 0 0 0 5.34 13.338 15.96 15.96 0 0 1 12.225 24.578 23.96 23.96 0 0 0 -5.445-.629h-320a23.876 23.876 0 0 0 -8.384 1.514 23.985 23.985 0 0 1 11.584-41.034zm-3.2 55.52h320a8 8 0 0 1 0 16h-320a8 8 0 0 1 0-16zm177.879 207.506a15.893 15.893 0 0 1 -1.879-7.506 8 8 0 0 0 -8-8h-26.4l-5.334-160h47.458zm-89.039-15.506-16-160h47.422l5.338 160zm-79.4-160h47.32l16 160h-36.65zm-65.44 249.012v-50.024a32.121 32.121 0 0 0 22.988-22.988h25.012v96h-25.012a32.121 32.121 0 0 0 -22.988-22.988zm64 22.988v-96h112v96zm176-22.988a32.121 32.121 0 0 0 -22.988 22.988h-25.012v-96h25.012a32.121 32.121 0 0 0 22.988 22.988zm9.6-64.851 6.138-184.161h47.422l-3.235 32.353a23.98 23.98 0 0 0 -10.77 42.483l3.432 30.892-11.827 118.272h-24.76v-32a8 8 0 0 0 -6.4-7.839zm47.24 39.839 4.21-42.1 4.678 42.1zm30.32 48-8.445-76a466.212 466.212 0 0 0 105.285 12c2.644 0 5.3-.041 7.96-.085l-7.12 64.085z"/><path d="m48 88a32.04 32.04 0 0 0 31.943-30.078 23.988 23.988 0 1 0 -33.865-33.865 32 32 0 0 0 1.922 63.943zm0-48c.425 0 .888.022 1.414.067a8.007 8.007 0 0 0 7.636-4.009 7.993 7.993 0 1 1 10.892 10.892 8 8 0 0 0 -4.009 7.636c.045.526.067.989.067 1.414a16 16 0 1 1 -16-16z"/><path d="m48 352a31.894 31.894 0 0 0 12.926-2.72 24 24 0 1 0 17.38-44.44 24 24 0 1 0 -45.991-12.733 32 32 0 0 0 15.685 59.893zm-5.288-47.1a8 8 0 0 0 5.328-8.214c-.019-.226-.04-.453-.04-.684a8 8 0 0 1 16 0 7.882 7.882 0 0 1 -2.044 5.314 8 8 0 0 0 -.677 9.791 16.012 16.012 0 0 1 1.823 3.607 8 8 0 0 0 8.222 5.328c.224-.019.448-.04.676-.04a8 8 0 0 1 0 16 7.882 7.882 0 0 1 -5.308-2.038 8 8 0 0 0 -9.786-.669 16 16 0 1 1 -14.194-28.395z"/></g></svg>