<svg id="Capa_1" data-name="Capa 1" xmlns="http://www.w3.org/2000/svg" viewBox="0 0 407.94 129.8"><defs><style>.cls-1{font-size:124.06px;fill:#f6f6f6;font-family:Modern-Regular, "Modern No. 20";}.cls-2{fill:#cd0e12;}.cls-3{fill:#fddb87;}.cls-4{fill:#efbb5c;}.cls-5{fill:#dddbc7;}.cls-6{fill:#cfc9a7;}.cls-7{fill:#e73629;}.cls-8{fill:#e10f14;}.cls-9{fill:#ddd;}.cls-10{fill:#cdcbc6;}.cls-11{fill:#178ca0;}.cls-12{fill:#03828f;}.cls-13{fill:#010101;}.cls-14{fill:#ef7d12;}.cls-15{fill:#ea5814;}.cls-16{fill:#64509d;}.cls-17{fill:#584596;}.cls-18{fill:#4d3d91;}.cls-19{fill:#3e338a;}.cls-20{fill:#f7b336;}.cls-21{fill:#f9c25e;}.cls-22{fill:#f4960e;}.cls-23{fill:#f4990d;}</style></defs><text class="cls-1" transform="matrix(0.63, 0, 0.01, 1, 4.24, 103.87)">Films<tspan class="cls-2" x="293.65" y="0">Web</tspan></text><path class="cls-3" d="M381.85,54.28a4.62,4.62,0,0,1-3,5.83l.94,3.22-41,11.9-1-3.55a4.68,4.68,0,0,1-5.94-2.87A4.52,4.52,0,0,1,334,63.73a4.08,4.08,0,0,1-.63-1.27,4.67,4.67,0,0,1,3.48-5.6l.14,0a4,4,0,0,1-.44-1,4.68,4.68,0,0,1,3.48-5.6,5.06,5.06,0,0,1,4.56.83,5.33,5.33,0,0,1,5.41-1.9,4.77,4.77,0,0,1,3.62-4.88,4.69,4.69,0,0,1,5.85,2.63,5.27,5.27,0,0,1,2-1,4.91,4.91,0,0,1,5.21,1.47,5.11,5.11,0,0,1,3.09-2.41,4.67,4.67,0,0,1,5.93,2.87,4.32,4.32,0,0,1-1.19,4.25,5.55,5.55,0,0,1,1.42-.64A4.68,4.68,0,0,1,381.85,54.28Z" transform="translate(-6.37 -13.05)"/><path class="cls-4" d="M344.79,73.47l-.2-.7a4.67,4.67,0,0,1-5.94-2.87,4.32,4.32,0,0,1,1.07-4.12,2.26,2.26,0,0,0,.58-2.16l0-.07A4.67,4.67,0,0,1,343.76,58c.05,0-.33-1-.41-1.57a4.75,4.75,0,0,1,3.33-5,5.24,5.24,0,0,1,3.75.1,2,2,0,0,0,2-.29,5.32,5.32,0,0,1,1.78-.89,5.78,5.78,0,0,1,.92-.19,2.32,2.32,0,0,0,2-1.55,4.72,4.72,0,0,1,1.23-2,1,1,0,0,0,0-1.44,5,5,0,0,0-4.68-.92A4.77,4.77,0,0,0,350,49.17a5.33,5.33,0,0,0-5.41,1.9,5.05,5.05,0,0,0-4.82-.74,4.74,4.74,0,0,0-3.33,5,3.9,3.9,0,0,0,.55,1.52l-.14,0a4.67,4.67,0,0,0-3.48,5.6,4.08,4.08,0,0,0,.63,1.27,4.52,4.52,0,0,0-2.26,5.08,4.68,4.68,0,0,0,5.94,2.87l1,3.55,6.06-1.75Z" transform="translate(-6.37 -13.05)"/><path class="cls-5" d="M385.9,61.93l.64,2.19,1,5.82,3.5,19.68,0,0,2.47,14a3.71,3.71,0,0,1-2.8,4.09L355.56,117.9a3.69,3.69,0,0,1-4.54-2l-5.41-13.08L338,84.4l-2.28-5.54-.64-2.19a4.43,4.43,0,0,1,8.45-2.55A4.43,4.43,0,0,1,352,71.66a4.43,4.43,0,0,1,8.47-2.45,4.44,4.44,0,0,1,8.48-2.46,4.43,4.43,0,0,1,8.47-2.46,4.43,4.43,0,0,1,8.5-2.36Z" transform="translate(-6.37 -13.05)"/><path class="cls-6" d="M373.53,103.31a3.71,3.71,0,0,1-4.55-2l-5.4-13.08L356,69.8l-1.26-3a4.16,4.16,0,0,0-2.71,4.9,4.43,4.43,0,0,0-8.47,2.45,4.43,4.43,0,0,0-8.45,2.55l.64,2.2L338,84.4l7.63,18.47L351,116a3.69,3.69,0,0,0,4.54,2l35.16-10.19a3.71,3.71,0,0,0,2.8-4.09l-1-5.81-19,5.5Z" transform="translate(-6.37 -13.05)"/><path class="cls-7" d="M390.72,107.71a3.71,3.71,0,0,0,2.8-4.09l-2.47-14,0,0-3.5-19.68-1-5.82-.64-2.19a4.43,4.43,0,0,0-8.5,2.36c-.08-.27,9.45,44.54,9.45,44.54l3.87-1.12Z" transform="translate(-6.37 -13.05)"/><path class="cls-8" d="M392.49,97.81,385,100c1.11,5.2,1.88,8.84,1.88,8.84l3.87-1.12a4,4,0,0,0,1.56-.84,3.77,3.77,0,0,0,.85-1,3.3,3.3,0,0,0,.39-2.22Z" transform="translate(-6.37 -13.05)"/><path class="cls-8" d="M359,116.92l7.16-2.08S351.9,71.37,352,71.67a4.43,4.43,0,0,0-8.47,2.45C343.44,73.88,359,116.92,359,116.92Z" transform="translate(-6.37 -13.05)"/><path class="cls-7" d="M378.78,111.26,373,112.93S360.39,69,360.48,69.29A4.43,4.43,0,0,1,369,66.84C368.88,66.59,378.78,111.26,378.78,111.26Z" transform="translate(-6.37 -13.05)"/><path class="cls-8" d="M370.11,102.77c1.55,5.41,2.72,9.46,2.9,10.08l5.75-1.67c-.12-.58-.89-4.05-1.95-8.82l-3.28,1A3.94,3.94,0,0,1,370.11,102.77Z" transform="translate(-6.37 -13.05)"/><path class="cls-9" d="M395.31,70.44l4.1,14.14a2.48,2.48,0,0,1-1.84,3l-26.79,7.77a.19.19,0,0,1-.18,0l-2-2.7a1.46,1.46,0,0,0-2.56.74l-.23,3.34a.21.21,0,0,1-.13.13l-26.79,7.77a2.47,2.47,0,0,1-3.14-1.52l-4.11-14.15a2.47,2.47,0,0,1,1.85-3l26.59-7.71a1.27,1.27,0,0,1,.92.07l1,.46a1.84,1.84,0,0,0,2.31-.67l.55-.9a1.3,1.3,0,0,1,.74-.55l26.6-7.71A2.47,2.47,0,0,1,395.31,70.44Z" transform="translate(-6.37 -13.05)"/><path class="cls-10" d="M363.49,79.67a2.09,2.09,0,0,1-.07-.89,1.79,1.79,0,0,1-1.45,0l-1-.46a1.27,1.27,0,0,0-.92-.07l-26.59,7.71a2.47,2.47,0,0,0-1.85,3L335.77,103a2.47,2.47,0,0,0,3.14,1.52l26.79-7.77a.21.21,0,0,0,.13-.13l.23-3.34a1.36,1.36,0,0,1,1-1.2l-3.61-12.45Z" transform="translate(-6.37 -13.05)"/><path class="cls-11" d="M359.3,84.25l2.3,7.92a1.6,1.6,0,0,1-1.2,1.93L342,99.44a1.6,1.6,0,0,1-2-1l-2.3-7.92a1.61,1.61,0,0,1,1.2-1.93l18.41-5.34A1.6,1.6,0,0,1,359.3,84.25Z" transform="translate(-6.37 -13.05)"/><path class="cls-7" d="M391.13,75,393.42,83a1.61,1.61,0,0,1-1.19,1.93l-18.42,5.33a1.61,1.61,0,0,1-2-1l-2.3-7.93a1.61,1.61,0,0,1,1.2-1.93L389.08,74A1.62,1.62,0,0,1,391.13,75Z" transform="translate(-6.37 -13.05)"/><path class="cls-12" d="M357.26,83.26,338.85,88.6a1.61,1.61,0,0,0-1.2,1.93l.25.85,9.76-2.83c5.24-1.52,10.59,1.07,12,5.78h0l.78-.23a1.61,1.61,0,0,0,1.2-1.93l-2.3-7.92A1.61,1.61,0,0,0,357.26,83.26Z" transform="translate(-6.37 -13.05)"/><path class="cls-8" d="M389.08,74l-18.41,5.33a1.62,1.62,0,0,0-1.2,1.93l.25.86,9.77-2.84c5.23-1.51,10.58,1.07,11.95,5.78h0l.79-.22A1.61,1.61,0,0,0,393.42,83L391.13,75A1.62,1.62,0,0,0,389.08,74Z" transform="translate(-6.37 -13.05)"/><path class="cls-3" d="M407.86,87.09a3.73,3.73,0,1,1,2.06,7.12,4.5,4.5,0,0,1-1.45.17,4.19,4.19,0,0,1-3,2.94,3.94,3.94,0,0,1-5-2.41,3.42,3.42,0,0,1,.08-2.1,3.16,3.16,0,0,1-.25-.6,3.93,3.93,0,0,1,2.92-4.71,4.36,4.36,0,0,1,3.18.28A4.47,4.47,0,0,1,407.86,87.09Z" transform="translate(-6.37 -13.05)"/><path class="cls-4" d="M405.7,93.51a3.42,3.42,0,0,1,.07-2.1,3,3,0,0,1-.24-.61,3.56,3.56,0,0,1,.64-3.16,4.41,4.41,0,0,0-2.88-.14,3.93,3.93,0,0,0-2.93,4.71,3.16,3.16,0,0,0,.25.6,3.42,3.42,0,0,0-.08,2.1,3.94,3.94,0,0,0,5,2.41,4.35,4.35,0,0,0,2.27-1.54A3.5,3.5,0,0,1,405.7,93.51Z" transform="translate(-6.37 -13.05)"/><path class="cls-3" d="M395.46,99.74a3.45,3.45,0,0,1,1.46,5,4.45,4.45,0,0,1-5.6,1.62,3.78,3.78,0,0,1-1.1-.81,4.43,4.43,0,0,1-4.25.29,3.44,3.44,0,0,1-1.45-5,4.31,4.31,0,0,1,1.67-1.53,3.11,3.11,0,0,1,.31-.6,4.45,4.45,0,0,1,5.59-1.63,3.49,3.49,0,0,1,1.9,2.27A4.22,4.22,0,0,1,395.46,99.74Z" transform="translate(-6.37 -13.05)"/><path class="cls-4" d="M390.11,102.2a4.24,4.24,0,0,1,1.68-1.52,3.83,3.83,0,0,1,.3-.61,4.28,4.28,0,0,1,1.6-1.48,3.61,3.61,0,0,0-1.6-1.51,4.45,4.45,0,0,0-5.59,1.63,3.11,3.11,0,0,0-.31.6,4.31,4.31,0,0,0-1.67,1.53,3.44,3.44,0,0,0,1.45,5,4.45,4.45,0,0,0,4-.14A3.48,3.48,0,0,1,390.11,102.2Z" transform="translate(-6.37 -13.05)"/><path class="cls-3" d="M335.92,111.38a3.49,3.49,0,0,1-.43,2.06,3.3,3.3,0,0,1,.13.64,3.92,3.92,0,0,1-3.68,4.13,4.31,4.31,0,0,1-3.08-.81,4.59,4.59,0,0,1-1.5.44,3.72,3.72,0,1,1-.82-7.36,4.42,4.42,0,0,1,1.46.07,4.17,4.17,0,0,1,3.41-2.39A3.94,3.94,0,0,1,335.92,111.38Z" transform="translate(-6.37 -13.05)"/><path class="cls-4" d="M328.39,116.43a3.93,3.93,0,0,1,3.68-4.14,4.7,4.7,0,0,1,1.46.08,4,4,0,0,1,2.09-2,4.09,4.09,0,0,0-4.21-2.17,4.17,4.17,0,0,0-3.41,2.39,4.42,4.42,0,0,0-1.46-.07,3.72,3.72,0,1,0,.82,7.36,4.74,4.74,0,0,0,1.33-.36A3.43,3.43,0,0,1,328.39,116.43Z" transform="translate(-6.37 -13.05)"/><path class="cls-13" d="M356.93,82.11l-18.42,5.34a2.88,2.88,0,0,0-2.14,3.45l2.3,7.92a2.87,2.87,0,0,0,3.65,1.77l18.42-5.34a2.88,2.88,0,0,0,2.14-3.45l-2.3-7.92A2.88,2.88,0,0,0,356.93,82.11Zm3.39,10.43a.34.34,0,0,1-.25.41l-18.41,5.34a.34.34,0,0,1-.43-.21l-2.3-7.92a.34.34,0,0,1,.25-.41l18.41-5.34a.34.34,0,0,1,.43.21l2.3,7.92Z" transform="translate(-6.37 -13.05)"/><path class="cls-13" d="M374.15,91.36,392.56,86a2.88,2.88,0,0,0,2.14-3.45l-2.29-7.93a2.89,2.89,0,0,0-3.66-1.77l-4,1.17a1.2,1.2,0,1,0,.66,2.3l4-1.16a.34.34,0,0,1,.43.21l2.29,7.92a.33.33,0,0,1-.25.4l-18.41,5.34a.33.33,0,0,1-.43-.21l-2.3-7.92a.34.34,0,0,1,.25-.4l8.31-2.41a1.2,1.2,0,1,0-.67-2.3l-8.3,2.4a2.9,2.9,0,0,0-2.15,3.45l2.3,7.93A2.88,2.88,0,0,0,374.15,91.36Z" transform="translate(-6.37 -13.05)"/><path class="cls-13" d="M343.34,62.11a3.78,3.78,0,0,1,1.29-.2,1.47,1.47,0,0,0,.42-.06,1.44,1.44,0,0,0,.69-.44,1.14,1.14,0,0,0,.26-1.09l0,0a3.11,3.11,0,0,1,.49-2.64,1.11,1.11,0,0,0-.23-1.58l-.12-.09a1.37,1.37,0,0,0-1-.27,1.41,1.41,0,0,0-.94.54,3.77,3.77,0,0,1-2,1.33l-.06,0h-.05a1.4,1.4,0,0,0-.91.73,1.1,1.1,0,0,0,0,1.07,2.64,2.64,0,0,1,.31.71,2.78,2.78,0,0,1,.12.91,1.08,1.08,0,0,0,.52,1A1.39,1.39,0,0,0,343.34,62.11Z" transform="translate(-6.37 -13.05)"/><path class="cls-13" d="M359.07,59.14a1.36,1.36,0,0,0,1.22.24h0a1.41,1.41,0,0,0,.92-.81,3.66,3.66,0,0,1,2.44-2.18,4.16,4.16,0,0,1,1.31-.15,1.44,1.44,0,0,0,1.11-.42,1.18,1.18,0,0,0,.35-1,3.17,3.17,0,0,1,0-.87,1.1,1.1,0,0,0-.59-1.12,1.44,1.44,0,0,0-1.38,0,4.26,4.26,0,0,1-.88.38,4,4,0,0,1-2,0,1.44,1.44,0,0,0-1.2.23,1.23,1.23,0,0,0-.54,1A3.29,3.29,0,0,1,358.61,57a1.28,1.28,0,0,0-.44,1,1.13,1.13,0,0,0,.54.89A2.31,2.31,0,0,1,359.07,59.14Z" transform="translate(-6.37 -13.05)"/><path class="cls-13" d="M407.53,85.94a6.53,6.53,0,0,0-1.13.46,5.71,5.71,0,0,0-3.45-.05,5.22,5.22,0,0,0-3.87,6.23c0,.12.08.25.13.38a4.56,4.56,0,0,0,0,2.32,5.2,5.2,0,0,0,6.6,3.19,5.68,5.68,0,0,0,3.57-2.93,6.3,6.3,0,0,0,.84-.18,4.93,4.93,0,1,0-2.73-9.42Zm2.06,7.12a3,3,0,0,1-1,.11,1.41,1.41,0,0,0-1.43,1,2.82,2.82,0,0,1-2,2,2.66,2.66,0,0,1-3.38-1.63,2.41,2.41,0,0,1,.05-1.43,1.06,1.06,0,0,0-.05-.87,2,2,0,0,1-.17-.41,2.66,2.66,0,0,1,2-3.18,3,3,0,0,1,2.15.19,1.44,1.44,0,0,0,1.48-.13,3.19,3.19,0,0,1,.94-.47,2.52,2.52,0,1,1,1.4,4.82Z" transform="translate(-6.37 -13.05)"/><path class="cls-13" d="M395,98.28a4.57,4.57,0,0,0-1.4-1.75l-1.11-6.27,5.39-1.56a3.76,3.76,0,0,0,2.79-4.49l-4.1-14.14a3.34,3.34,0,0,0-1.47-1.9l-8-6.87,0,0a5.35,5.35,0,0,0-4.19-3.34,6.11,6.11,0,0,0,.23-4A5.77,5.77,0,0,0,377,50a5.09,5.09,0,0,0-.08-2.57c-.86-3-4.24-4.61-7.55-3.65a6.75,6.75,0,0,0-2.89,1.7,6.54,6.54,0,0,0-5.41-.76,7.05,7.05,0,0,0-1.08.41,6.52,6.52,0,0,0-11.25,2.68,6.84,6.84,0,0,0-4.34,1.64,6.53,6.53,0,0,0-4.72-.37c-3.3,1-5.28,4.15-4.43,7.11a5.8,5.8,0,0,0-3.18,6.63,4.62,4.62,0,0,0,.23.62,5.58,5.58,0,0,0-1.86,5.73,5.48,5.48,0,0,0,4,3.71,5.09,5.09,0,0,0-.74,3.87v0l-3.09,10.09a3.32,3.32,0,0,0-.23,2.38l4.11,14.15a3.75,3.75,0,0,0,4.75,2.3l5.45-1.58,5.08,12.29a5,5,0,0,0,6.13,2.64l35.16-10.2a5.58,5.58,0,0,0,1.75-.85,5.78,5.78,0,0,0,1.94-.24,5.7,5.7,0,0,0,3.31-2.45,4.57,4.57,0,0,0-1.93-6.65A5.22,5.22,0,0,0,395,98.28Zm-4.29-2.8a5.94,5.94,0,0,0-4.89,2l-1.06-5,5.16-1.5Zm-9.84,13.83-3.64-14.62,5-1.44,1.42,6.67a3,3,0,0,0-.25.37,4.56,4.56,0,0,0,1.71,6.55l.26,1.18Zm-6.84,2-2.87-9.9a1.29,1.29,0,0,0-1.62-.78,1.27,1.27,0,0,0-.94,1.52l2.87,9.9-4.29,1.24L362.45,99l3.58-1a1.56,1.56,0,0,0,1.08-1,2,2,0,0,0,0-.24l.23-3.34s0,0,.05-.06.06,0,.08,0l2,2.7a.69.69,0,0,0,.16.18,1.55,1.55,0,0,0,1.46.3l3.58-1,3.64,14.63-4.28,1.24Zm-13.87,4-5.25-14.16,5-1.44L364.64,114l-4.46,1.29ZM391,68l-2.28.66-.54-3.08Zm-5.73-3.58.88,5-5.88,1.71-1.66-7.81a2.67,2.67,0,0,1,.45-1.57,3.21,3.21,0,0,1,2-1.37,3,3,0,0,1,3.64,1.92l.62,2.14ZM372,73.52l-1.75-7a.29.29,0,0,0,0-.09v0a3.09,3.09,0,0,1,5.91-1.71.59.59,0,0,0,.06.14l1.49,7.06L372,73.52Zm-6.75,2a2.72,2.72,0,0,0-1.55,1.15l-.56.9a.36.36,0,0,1-.22.16.37.37,0,0,1-.27,0l-.95-.46a2.75,2.75,0,0,0-1.92-.15l-4.19,1.22-2.31-6.94h0v0a3.09,3.09,0,0,1,5.91-1.71l0,0v0l1.56,5.4a1.34,1.34,0,0,0,2.56-.74l-1.56-5.4v0l0,0a3.1,3.1,0,0,1,5.92-1.72v0h0l1.77,7.09Zm-26.35,7.64L337,78.44l-.62-2.14a3,3,0,0,1,2.05-3.58,3.3,3.3,0,0,1,2.38.12A2.71,2.71,0,0,1,342,73.93l2.77,7.48-5.87,1.71Zm8.44-2.45-2.51-6.76,0-.16A3.09,3.09,0,0,1,350.7,72v0l0,.08L353,79l-5.69,1.65Zm-10-10.15A3.4,3.4,0,0,1,333,68.44a3.3,3.3,0,0,1,1.65-3.7,1.33,1.33,0,0,0,.62-.8,1.11,1.11,0,0,0-.18-.93,2.94,2.94,0,0,1-.46-.92A3.41,3.41,0,0,1,337.2,58l.09,0a1.43,1.43,0,0,0,.92-.72,1.12,1.12,0,0,0,0-1.08,2.85,2.85,0,0,1-.31-.72,3.39,3.39,0,0,1,2.53-4.07,3.67,3.67,0,0,1,3.32.59,1.32,1.32,0,0,0,1,.27,1.44,1.44,0,0,0,.94-.54,3.88,3.88,0,0,1,3.94-1.38,1.45,1.45,0,0,0,1.23-.28,1.23,1.23,0,0,0,.49-1.07,3.63,3.63,0,0,1,6.9-1.64,1.18,1.18,0,0,0,.9.75,1.5,1.5,0,0,0,1.22-.31,3.76,3.76,0,0,1,1.42-.76,3.61,3.61,0,0,1,3.8,1.07,1.29,1.29,0,0,0,1.17.46,1.43,1.43,0,0,0,1.08-.71,3.74,3.74,0,0,1,2.25-1.76,3.4,3.4,0,0,1,4.32,2.09,3.14,3.14,0,0,1-.86,3.1,1.12,1.12,0,0,0-.06,1.6,1.38,1.38,0,0,0,1.73.16,3.62,3.62,0,0,1,1-.47,3.4,3.4,0,0,1,4.32,2.09,3.67,3.67,0,0,1-.84,3.6,6,6,0,0,0-3,2.35,5.14,5.14,0,0,0-.29.51A6.15,6.15,0,0,0,368,63.58,6.17,6.17,0,0,0,359.53,66a6.15,6.15,0,0,0-8.47,2.46,6.16,6.16,0,0,0-8.47,2.45,5.12,5.12,0,0,0-.52-.27,6.06,6.06,0,0,0-4.44-.22l-.12,0ZM335.13,81l1.19,2.89-2.28.66Zm1.92,21.7-4.11-14.15a1,1,0,0,1,0-.63,1.23,1.23,0,0,0,.12-.26,1.35,1.35,0,0,1,.76-.55l26.55-7.7.91.44a3.26,3.26,0,0,0,4.12-1.19l.53-.86,26.55-7.7a1.34,1.34,0,0,1,.93.07,1.28,1.28,0,0,0,.25.15,1,1,0,0,1,.35.52L398.13,85a1.21,1.21,0,0,1-.9,1.44l-26,7.53h0l-1.51-2.06a2.84,2.84,0,0,0-5,1.45l-.18,2.55-26,7.54A1.2,1.2,0,0,1,337.05,102.67Zm15.21,12.8-5-12.09,5.11-1.48,5.25,14.16-2.39.69A2.4,2.4,0,0,1,352.26,115.47Zm43.51-11.25a3,3,0,0,1-3.78,1.1,2.51,2.51,0,0,1-.74-.55,1.35,1.35,0,0,0-1.36-.34,1.24,1.24,0,0,0-.37.17,3,3,0,0,1-2.88.19,2.33,2.33,0,0,1-1-3.4,2.82,2.82,0,0,1,1.13-1,1.3,1.3,0,0,0,.64-.69,2,2,0,0,1,.21-.41,3,3,0,0,1,3.78-1.1,2.39,2.39,0,0,1,1.29,1.53,1.17,1.17,0,0,0,1.09.86,2.75,2.75,0,0,1,1,.27A2.33,2.33,0,0,1,395.77,104.22Z" transform="translate(-6.37 -13.05)"/><path class="cls-13" d="M331.28,107a5.65,5.65,0,0,0-4,2.28,6.18,6.18,0,0,0-.86,0A4.93,4.93,0,1,0,327.5,119a5.92,5.92,0,0,0,1.18-.26,5.78,5.78,0,0,0,3.4.63,5.2,5.2,0,0,0,4.87-5.47c0-.13,0-.27-.07-.4a4.45,4.45,0,0,0,.36-2.3A5.2,5.2,0,0,0,331.28,107Zm3,6a1.07,1.07,0,0,0-.09.87,2.77,2.77,0,0,1,.09.43,2.66,2.66,0,0,1-2.49,2.8,2.87,2.87,0,0,1-2.08-.55,1.47,1.47,0,0,0-1.49-.12,2.79,2.79,0,0,1-1,.29,2.51,2.51,0,1,1-.55-5,3,3,0,0,1,1,0,1.41,1.41,0,0,0,1.58-.75,2.83,2.83,0,0,1,2.31-1.62,2.66,2.66,0,0,1,3,2.18A2.37,2.37,0,0,1,334.3,112.92Z" transform="translate(-6.37 -13.05)"/><path class="cls-3" d="M43.84,104.34a5,5,0,0,1,1.71,9.9,4.61,4.61,0,0,1-1.7,0,4.74,4.74,0,0,1-3.71,3.39,4.89,4.89,0,0,1-5.55-4.14,5.17,5.17,0,0,1,.29-2.8,4.84,4.84,0,0,1-.23-.85,4.89,4.89,0,0,1,3.84-5.76,4.63,4.63,0,0,1,3.66,1A4.46,4.46,0,0,1,43.84,104.34Z" transform="translate(-6.37 -13.05)"/><path class="cls-4" d="M40.71,112.53a5.17,5.17,0,0,1,.29-2.8,4.84,4.84,0,0,1-.23-.85,5.14,5.14,0,0,1,1-4.12,4.6,4.6,0,0,0-3.33-.71,4.9,4.9,0,0,0-3.84,5.76,4.84,4.84,0,0,0,.23.85,5.17,5.17,0,0,0-.29,2.8,4.89,4.89,0,0,0,5.55,4.14A4.6,4.6,0,0,0,42.93,116,5.15,5.15,0,0,1,40.71,112.53Z" transform="translate(-6.37 -13.05)"/><path class="cls-13" d="M43.56,102.74a5.68,5.68,0,0,0-1.35.4,6,6,0,0,0-4-.69,6.49,6.49,0,0,0-5.08,7.62,4.54,4.54,0,0,0,.12.53,6.89,6.89,0,0,0-.18,3.13,6.5,6.5,0,0,0,7.35,5.48,6.18,6.18,0,0,0,4.41-3.28,5.52,5.52,0,0,0,1-.09,6.66,6.66,0,0,0-2.26-13.1Zm1.71,9.9a3,3,0,0,1-1.15,0,1.51,1.51,0,0,0-1.75,1.09,3.22,3.22,0,0,1-2.51,2.3,3.31,3.31,0,0,1-3.75-2.8,3.63,3.63,0,0,1,.19-1.9,1.65,1.65,0,0,0,0-1.18,3.45,3.45,0,0,1-.15-.57,3.32,3.32,0,0,1,2.6-3.9,3.13,3.13,0,0,1,2.47.64,1.49,1.49,0,0,0,1.73.1,3,3,0,0,1,1.14-.45,3.41,3.41,0,0,1,1.16,6.7Z" transform="translate(-6.37 -13.05)"/><path class="cls-3" d="M21,104.38a3.4,3.4,0,0,1-.66,2,2.73,2.73,0,0,1,.07.64,3.92,3.92,0,0,1-4.12,3.7,4.34,4.34,0,0,1-3-1.14,4.55,4.55,0,0,1-1.53.26,3.72,3.72,0,1,1,0-7.4,4.31,4.31,0,0,1,1.44.24,4.18,4.18,0,0,1,3.65-2A3.93,3.93,0,0,1,21,104.38Z" transform="translate(-6.37 -13.05)"/><path class="cls-4" d="M13,108.56a3.93,3.93,0,0,1,4.12-3.7,4.53,4.53,0,0,1,1.44.23,4,4,0,0,1,2.3-1.79,4.09,4.09,0,0,0-3.94-2.63,4.18,4.18,0,0,0-3.65,2,4.33,4.33,0,0,0-1.45-.24,3.72,3.72,0,1,0,0,7.4,4.61,4.61,0,0,0,1.36-.2A3.6,3.6,0,0,1,13,108.56Z" transform="translate(-6.37 -13.05)"/><path class="cls-13" d="M16.91,99.47a5.69,5.69,0,0,0-4.24,1.83,6.07,6.07,0,0,0-.85-.06,4.93,4.93,0,1,0,0,9.8,6,6,0,0,0,1.2-.12,5.81,5.81,0,0,0,3.3,1,5.2,5.2,0,0,0,5.45-4.9,2.75,2.75,0,0,0,0-.4,4.46,4.46,0,0,0,.61-2.24A5.2,5.2,0,0,0,16.91,99.47Zm2.34,6.26a1.09,1.09,0,0,0-.19.85,2.47,2.47,0,0,1,.05.44,2.67,2.67,0,0,1-2.79,2.51,2.92,2.92,0,0,1-2-.78,1.39,1.39,0,0,0-1-.37,1.42,1.42,0,0,0-.5.08,3,3,0,0,1-1,.18,2.52,2.52,0,1,1,0-5,3,3,0,0,1,1,.16,1.4,1.4,0,0,0,1.65-.57,2.82,2.82,0,0,1,2.47-1.36,2.67,2.67,0,0,1,2.79,2.51A2.35,2.35,0,0,1,19.25,105.73Z" transform="translate(-6.37 -13.05)"/><ellipse class="cls-14" cx="71.7" cy="42.56" rx="6.38" ry="7.46" transform="translate(-16.16 11.88) rotate(-18.49)"/><ellipse class="cls-15" cx="71.7" cy="42.56" rx="5.71" ry="6.68" transform="translate(-16.16 11.88) rotate(-18.49)"/><ellipse class="cls-16" cx="70.43" cy="42.99" rx="5.04" ry="5.89" transform="translate(-16.36 11.5) rotate(-18.49)"/><ellipse class="cls-17" cx="70.43" cy="42.99" rx="4.36" ry="5.1" transform="translate(-16.36 11.5) rotate(-18.49)"/><ellipse class="cls-18" cx="70.43" cy="42.99" rx="3.02" ry="3.53" transform="translate(-16.36 11.5) rotate(-18.49)"/><ellipse class="cls-19" cx="70.43" cy="42.99" rx="1.68" ry="1.96" transform="translate(-16.36 11.5) rotate(-18.49)"/><path class="cls-19" d="M72.29,48.58a2,2,0,0,1-1.24-3.73h.09a.38.38,0,0,1,.43.3.35.35,0,0,1-.2.45h0l-.06,0a1.19,1.19,0,0,0,.75,2.23.35.35,0,0,1,.46.21.39.39,0,0,1-.14.51l-.08,0Z" transform="translate(-6.37 -13.05)"/><path class="cls-19" d="M68.17,42.46a2,2,0,0,1-1.24-3.72H67a.39.39,0,0,1,.43.3.35.35,0,0,1-.2.45h0l0,0a1.19,1.19,0,0,0,.74,2.23.37.37,0,0,1,.45.27.36.36,0,0,1-.2.47Z" transform="translate(-6.37 -13.05)"/><path class="cls-19" d="M68.41,47a2,2,0,0,1-1.25-3.72h.09a.4.4,0,0,1,.44.3.37.37,0,0,1-.2.45h0l-.06,0a1.19,1.19,0,0,0,.75,2.23.37.37,0,0,1,.44.27.36.36,0,0,1-.19.47Z" transform="translate(-6.37 -13.05)"/><path class="cls-19" d="M74.46,45a2,2,0,0,1-1.24-3.72h.09a.37.37,0,0,1,.43.29.36.36,0,0,1-.2.46h0l0,0a1.19,1.19,0,0,0,.74,2.23.38.38,0,0,1,.45.27.37.37,0,0,1-.2.48Z" transform="translate(-6.37 -13.05)"/><path class="cls-19" d="M71.91,41.21a2,2,0,0,1-1.24-3.72h.09a.37.37,0,0,1,.43.29.36.36,0,0,1-.2.46h-.07a1.2,1.2,0,0,0,.75,2.24.39.39,0,0,1,.24.74Z" transform="translate(-6.37 -13.05)"/><path class="cls-18" d="M76.35,40.59l-1.24-3.72A2.2,2.2,0,0,1,76.27,34h0l-1-3h0c-2.11.7-3.15,3.28-2.32,5.74h0l1.49,4.47Z" transform="translate(-6.37 -13.05)"/><path id="SVGCleanerId_0" data-name="SVGCleanerId 0" class="cls-20" d="M72.79,50.06c-3.34,1.12-7.11-1.14-8.41-5.05s.34-8,3.68-9.1,7.11,1.15,8.42,5.06-.35,8-3.69,9.09Zm-.5-1.48a2,2,0,1,0-2.21-1.33h0a1.85,1.85,0,0,0,2.21,1.33Zm-5.83-2.35a1.64,1.64,0,0,0,2.41.53,2.06,2.06,0,0,0,.24-2.69,1.64,1.64,0,0,0-2.41-.52h0a2,2,0,0,0-.24,2.68Zm2-7.15a1.53,1.53,0,0,0-2.36.33,2.18,2.18,0,0,0,.52,2.72A1.53,1.53,0,0,0,69,41.8h0A2.18,2.18,0,0,0,68.47,39.08Zm1,4.23a1,1,0,1,0,.58-1.44,1.11,1.11,0,0,0-.58,1.44Zm2.25-5.78a1.53,1.53,0,0,0-2.08,1.16,2.19,2.19,0,0,0,1.22,2.48A1.53,1.53,0,0,0,73,40,2.2,2.2,0,0,0,71.72,37.53Zm2,3.66a1.65,1.65,0,0,0-1.61,1.87,2.05,2.05,0,0,0,1.81,2,1.64,1.64,0,0,0,1.61-1.86h0a2.06,2.06,0,0,0-1.81-2Z" transform="translate(-6.37 -13.05)"/><path id="SVGCleanerId_0-2" data-name="SVGCleanerId 0" class="cls-20" d="M72.79,50.06c-3.34,1.12-7.11-1.14-8.41-5.05s.34-8,3.68-9.1,7.11,1.15,8.42,5.06-.35,8-3.69,9.09Zm-.5-1.48a2,2,0,1,0-2.21-1.33h0a1.85,1.85,0,0,0,2.21,1.33Zm-5.83-2.35a1.64,1.64,0,0,0,2.41.53,2.06,2.06,0,0,0,.24-2.69,1.64,1.64,0,0,0-2.41-.52h0a2,2,0,0,0-.24,2.68Zm2-7.15a1.53,1.53,0,0,0-2.36.33,2.18,2.18,0,0,0,.52,2.72A1.53,1.53,0,0,0,69,41.8h0A2.18,2.18,0,0,0,68.47,39.08Zm1,4.23a1,1,0,1,0,.58-1.44,1.11,1.11,0,0,0-.58,1.44Zm2.25-5.78a1.53,1.53,0,0,0-2.08,1.16,2.19,2.19,0,0,0,1.22,2.48A1.53,1.53,0,0,0,73,40,2.2,2.2,0,0,0,71.72,37.53Zm2,3.66a1.65,1.65,0,0,0-1.61,1.87,2.05,2.05,0,0,0,1.81,2,1.64,1.64,0,0,0,1.61-1.86h0a2.06,2.06,0,0,0-1.81-2Z" transform="translate(-6.37 -13.05)"/><path class="cls-21" d="M72.54,49.32c-3,1-6.36-1-7.53-4.52s.31-7.14,3.3-8.14,6.36,1,7.53,4.52h0c1.17,3.5-.31,7.14-3.3,8.14Zm-.25-.74a2,2,0,1,0-2.21-1.33h0a1.85,1.85,0,0,0,2.21,1.33Zm-5.83-2.35a1.64,1.64,0,0,0,2.41.53,2.06,2.06,0,0,0,.24-2.69,1.64,1.64,0,0,0-2.41-.52h0a2,2,0,0,0-.24,2.68Zm2-7.15a1.53,1.53,0,0,0-2.36.33,2.18,2.18,0,0,0,.52,2.72A1.53,1.53,0,0,0,69,41.8h0A2.18,2.18,0,0,0,68.47,39.08Zm1,4.23a1,1,0,1,0,.58-1.44,1.11,1.11,0,0,0-.58,1.44Zm2.25-5.78a1.53,1.53,0,0,0-2.08,1.16,2.19,2.19,0,0,0,1.22,2.48A1.53,1.53,0,0,0,73,40,2.2,2.2,0,0,0,71.72,37.53Zm2,3.66a1.65,1.65,0,0,0-1.61,1.87,2.05,2.05,0,0,0,1.81,2,1.64,1.64,0,0,0,1.61-1.86h0a2.06,2.06,0,0,0-1.81-2Z" transform="translate(-6.37 -13.05)"/><path class="cls-22" d="M72.79,50.06h0a.74.74,0,0,1-.88-.54.73.73,0,0,1,.4-.95h0c2.64-.89,3.94-4.11,2.91-7.19s-4-4.87-6.64-4a4.55,4.55,0,0,0-1.71,1.06.64.64,0,0,1-1-.11.84.84,0,0,1,0-1.09h0l.24-.22h1.93c3.34-1.11,7.11,1.15,8.42,5.06s-.35,8-3.69,9.09Z" transform="translate(-6.37 -13.05)"/><path class="cls-23" d="M68,49.28a.63.63,0,0,1-.56-.09h-.07a6.78,6.78,0,0,1-.67-.53h0l-.07-.06h0l0,0h0l0,0h0l0,0h0v0h-.06l0,0H64.38v0h-.1v0h0v0h0v0h0c0-.18-.09-.36-.13-.54v0h0v0a.7.7,0,0,1,.42-.84.72.72,0,0,1,.88.53.23.23,0,0,1,0,.11v0h0a6.93,6.93,0,0,0,.2.75A6.53,6.53,0,0,0,68,47.85h0l0,0a.88.88,0,0,1,.3,1.07.64.64,0,0,1-.36.33Z" transform="translate(-6.37 -13.05)"/><path class="cls-3" d="M350.68,123.24a3.73,3.73,0,1,1,2.06,7.12,4.56,4.56,0,0,1-1.45.17,4.2,4.2,0,0,1-3,2.94,3.93,3.93,0,0,1-5-2.41,3.42,3.42,0,0,1,.07-2.1,3.13,3.13,0,0,1-.24-.6,3.93,3.93,0,0,1,2.92-4.71,4.36,4.36,0,0,1,3.18.28A4.69,4.69,0,0,1,350.68,123.24Z" transform="translate(-6.37 -13.05)"/><path class="cls-4" d="M348.51,129.66a3.42,3.42,0,0,1,.08-2.1,3.16,3.16,0,0,1-.25-.6,3.58,3.58,0,0,1,.65-3.17,4.43,4.43,0,0,0-2.89-.14,3.93,3.93,0,0,0-2.92,4.71,3.13,3.13,0,0,0,.24.6,3.42,3.42,0,0,0-.07,2.1,3.93,3.93,0,0,0,5,2.41,4.35,4.35,0,0,0,2.27-1.54A3.54,3.54,0,0,1,348.51,129.66Z" transform="translate(-6.37 -13.05)"/><path class="cls-13" d="M350.34,122.09a6.43,6.43,0,0,0-1.12.46,5.71,5.71,0,0,0-3.45,0,5.21,5.21,0,0,0-3.87,6.23c0,.12.08.25.13.38a4.45,4.45,0,0,0,0,2.32,5.2,5.2,0,0,0,6.6,3.19,5.64,5.64,0,0,0,3.56-2.93,5.69,5.69,0,0,0,.84-.18,4.93,4.93,0,1,0-2.73-9.42Zm2.07,7.12a3,3,0,0,1-1,.11,1.41,1.41,0,0,0-1.43,1,2.83,2.83,0,0,1-2,2,2.65,2.65,0,0,1-3.37-1.63,2.3,2.3,0,0,1,.05-1.42,1.12,1.12,0,0,0-.06-.88,3,3,0,0,1-.16-.4,2.66,2.66,0,0,1,2-3.19,3,3,0,0,1,2.15.19,1.44,1.44,0,0,0,1.49-.13,2.75,2.75,0,0,1,.94-.46,2.52,2.52,0,1,1,1.4,4.81Z" transform="translate(-6.37 -13.05)"/><path class="cls-3" d="M350.68,123.24a3.73,3.73,0,1,1,2.06,7.12,4.56,4.56,0,0,1-1.45.17,4.2,4.2,0,0,1-3,2.94,3.93,3.93,0,0,1-5-2.41,3.42,3.42,0,0,1,.07-2.1,3.13,3.13,0,0,1-.24-.6,3.93,3.93,0,0,1,2.92-4.71,4.36,4.36,0,0,1,3.18.28A4.69,4.69,0,0,1,350.68,123.24Z" transform="translate(-6.37 -13.05)"/><path class="cls-4" d="M348.51,129.66a3.42,3.42,0,0,1,.08-2.1,3.16,3.16,0,0,1-.25-.6,3.58,3.58,0,0,1,.65-3.17,4.43,4.43,0,0,0-2.89-.14,3.93,3.93,0,0,0-2.92,4.71,3.13,3.13,0,0,0,.24.6,3.42,3.42,0,0,0-.07,2.1,3.93,3.93,0,0,0,5,2.41,4.35,4.35,0,0,0,2.27-1.54A3.54,3.54,0,0,1,348.51,129.66Z" transform="translate(-6.37 -13.05)"/><path class="cls-13" d="M350.34,122.09a6.43,6.43,0,0,0-1.12.46,5.71,5.71,0,0,0-3.45,0,5.21,5.21,0,0,0-3.87,6.23c0,.12.08.25.13.38a4.45,4.45,0,0,0,0,2.32,5.2,5.2,0,0,0,6.6,3.19,5.64,5.64,0,0,0,3.56-2.93,5.69,5.69,0,0,0,.84-.18,4.93,4.93,0,1,0-2.73-9.42Zm2.07,7.12a3,3,0,0,1-1,.11,1.41,1.41,0,0,0-1.43,1,2.83,2.83,0,0,1-2,2,2.65,2.65,0,0,1-3.37-1.63,2.3,2.3,0,0,1,.05-1.42,1.12,1.12,0,0,0-.06-.88,3,3,0,0,1-.16-.4,2.66,2.66,0,0,1,2-3.19,3,3,0,0,1,2.15.19,1.44,1.44,0,0,0,1.49-.13,2.75,2.75,0,0,1,.94-.46,2.52,2.52,0,1,1,1.4,4.81Z" transform="translate(-6.37 -13.05)"/><path class="cls-3" d="M350.68,123.24a3.73,3.73,0,1,1,2.06,7.12,4.56,4.56,0,0,1-1.45.17,4.2,4.2,0,0,1-3,2.94,3.93,3.93,0,0,1-5-2.41,3.42,3.42,0,0,1,.07-2.1,3.13,3.13,0,0,1-.24-.6,3.93,3.93,0,0,1,2.92-4.71,4.36,4.36,0,0,1,3.18.28A4.69,4.69,0,0,1,350.68,123.24Z" transform="translate(-6.37 -13.05)"/><path class="cls-4" d="M348.51,129.66a3.42,3.42,0,0,1,.08-2.1,3.16,3.16,0,0,1-.25-.6,3.58,3.58,0,0,1,.65-3.17,4.43,4.43,0,0,0-2.89-.14,3.93,3.93,0,0,0-2.92,4.71,3.13,3.13,0,0,0,.24.6,3.42,3.42,0,0,0-.07,2.1,3.93,3.93,0,0,0,5,2.41,4.35,4.35,0,0,0,2.27-1.54A3.54,3.54,0,0,1,348.51,129.66Z" transform="translate(-6.37 -13.05)"/><path class="cls-13" d="M350.34,122.09a6.43,6.43,0,0,0-1.12.46,5.71,5.71,0,0,0-3.45,0,5.21,5.21,0,0,0-3.87,6.23c0,.12.08.25.13.38a4.45,4.45,0,0,0,0,2.32,5.2,5.2,0,0,0,6.6,3.19,5.64,5.64,0,0,0,3.56-2.93,5.69,5.69,0,0,0,.84-.18,4.93,4.93,0,1,0-2.73-9.42Zm2.07,7.12a3,3,0,0,1-1,.11,1.41,1.41,0,0,0-1.43,1,2.83,2.83,0,0,1-2,2,2.65,2.65,0,0,1-3.37-1.63,2.3,2.3,0,0,1,.05-1.42,1.12,1.12,0,0,0-.06-.88,3,3,0,0,1-.16-.4,2.66,2.66,0,0,1,2-3.19,3,3,0,0,1,2.15.19,1.44,1.44,0,0,0,1.49-.13,2.75,2.75,0,0,1,.94-.46,2.52,2.52,0,1,1,1.4,4.81Z" transform="translate(-6.37 -13.05)"/></svg>