<svg id="Capa_1" data-name="Capa 1" xmlns="http://www.w3.org/2000/svg" viewBox="0 0 399.36 149.26"><defs><style>.cls-1{font-size:135.75px;fill:#1d1d1b;font-family:MyriadPro-Regular, Myriad Pro;}.cls-2{letter-spacing:-0.03em;}.cls-3,.cls-4{fill:#cd0e12;}.cls-3{letter-spacing:-0.03em;}.cls-5{fill:#fddb87;}.cls-6{fill:#efbb5c;}.cls-7{fill:#dddbc7;}.cls-8{fill:#cfc9a7;}.cls-9{fill:#e73629;}.cls-10{fill:#e10f14;}.cls-11{fill:#ddd;}.cls-12{fill:#cdcbc6;}.cls-13{fill:#178ca0;}.cls-14{fill:#03828f;}.cls-15{fill:#010101;}</style></defs><text class="cls-1" transform="matrix(0.6, 0, 0.01, 1, 8, 115.32)"><tspan class="cls-2">F</tspan><tspan x="62.58" y="0">ilms</tspan><tspan class="cls-3" x="293.36" y="0">W</tspan><tspan class="cls-4" x="403.73" y="0">eb</tspan></text><path class="cls-5" d="M376,77.7a4.61,4.61,0,0,1-3.63,5.46l.57,3.3-42.11,7.28-.63-3.65a4.67,4.67,0,0,1-5.58-3.51,4.51,4.51,0,0,1,2.81-4.8,3.8,3.8,0,0,1-.49-1.33A4.67,4.67,0,0,1,331,75.27l.14,0a3.91,3.91,0,0,1-.32-1,4.67,4.67,0,0,1,4.08-5.18,5,5,0,0,1,4.43,1.32,5.22,5.22,0,0,1,2.9-1.51,5.27,5.27,0,0,1,2.69.22,4.77,4.77,0,0,1,4.14-4.44,4.71,4.71,0,0,1,5.53,3.26,5.39,5.39,0,0,1,2.05-.82,4.94,4.94,0,0,1,5,2A5.13,5.13,0,0,1,365,67.07a4.68,4.68,0,0,1,5.58,3.51A4.31,4.31,0,0,1,369,74.67a5.58,5.58,0,0,1,1.48-.48A4.67,4.67,0,0,1,376,77.7Z" transform="translate(-6.27 -13.91)"/><path class="cls-6" d="M337.07,92.66l-.13-.72a4.68,4.68,0,0,1-5.58-3.51,4.31,4.31,0,0,1,1.52-4,2.26,2.26,0,0,0,.82-2.08l0-.07a4.69,4.69,0,0,1,4.08-5.18c.05,0-.21-1-.23-1.6A4.73,4.73,0,0,1,341.39,71a5.23,5.23,0,0,1,3.71.51,2,2,0,0,0,2-.07,5.46,5.46,0,0,1,1.86-.69,6.07,6.07,0,0,1,.94-.08,2.34,2.34,0,0,0,2.12-1.32,4.56,4.56,0,0,1,1.44-1.8,1,1,0,0,0,.15-1.44,5,5,0,0,0-4.54-1.43A4.77,4.77,0,0,0,345,69.08a5.27,5.27,0,0,0-2.69-.22,5.22,5.22,0,0,0-2.9,1.51,5.08,5.08,0,0,0-4.71-1.26,4.74,4.74,0,0,0-3.86,4.56,4.08,4.08,0,0,0,.38,1.58l-.14,0A4.67,4.67,0,0,0,327,80.45a3.8,3.8,0,0,0,.49,1.33,4.51,4.51,0,0,0-2.81,4.8,4.67,4.67,0,0,0,5.58,3.51l.63,3.65,6.22-1.08Z" transform="translate(-6.27 -13.91)"/><path class="cls-7" d="M379.2,85.75l.39,2.25.38,5.9,1.3,19.94,0,0,.9,14.14a3.7,3.7,0,0,1-3.23,3.75L342.85,138a3.71,3.71,0,0,1-4.31-2.44L334.62,122l-5.53-19.21L327.43,97,327,94.76a4.43,4.43,0,0,1,8.68-1.6,4.43,4.43,0,0,1,8.69-1.5,4.44,4.44,0,0,1,8.7-1.5,4.43,4.43,0,0,1,8.69-1.5,4.43,4.43,0,0,1,8.69-1.5,4.43,4.43,0,0,1,8.71-1.41Z" transform="translate(-6.27 -13.91)"/><path class="cls-8" d="M362.32,125.5a3.7,3.7,0,0,1-4.3-2.45l-3.92-13.59-5.54-19.21-.91-3.15a4.15,4.15,0,0,0-3.24,4.56,4.43,4.43,0,0,0-8.69,1.5,4.43,4.43,0,0,0-8.68,1.6l.39,2.25,1.66,5.75L334.62,122l3.92,13.6a3.71,3.71,0,0,0,4.31,2.44l36.07-6.23a3.7,3.7,0,0,0,3.23-3.75l-.38-5.89-19.45,3.36Z" transform="translate(-6.27 -13.91)"/><path class="cls-9" d="M378.92,131.78a3.7,3.7,0,0,0,3.23-3.75l-.9-14.14,0,0L380,93.9l-.38-5.9-.38-2.25a4.43,4.43,0,0,0-8.71,1.41c-.05-.29,4.45,45.31,4.45,45.31l4-.69Z" transform="translate(-6.27 -13.91)"/><path class="cls-10" d="M381.77,122.14l-7.71,1.33c.52,5.29.89,9,.89,9l4-.69a4.11,4.11,0,0,0,1.64-.66,3.7,3.7,0,0,0,1-.93,3.27,3.27,0,0,0,.63-2.16Z" transform="translate(-6.27 -13.91)"/><path class="cls-10" d="M346.34,137.41l7.35-1.27s-9.33-44.78-9.28-44.48a4.43,4.43,0,0,0-8.69,1.5C335.68,92.91,346.34,137.41,346.34,137.41Z" transform="translate(-6.27 -13.91)"/><path class="cls-9" d="M366.66,134l-5.9,1-7.64-44.76a4.44,4.44,0,0,1,8.7-1.5C361.77,88.5,366.66,134,366.66,134Z" transform="translate(-6.27 -13.91)"/><path class="cls-10" d="M359,124.59c.94,5.54,1.65,9.69,1.76,10.33l5.91-1c-.06-.59-.44-4.12-1-9l-3.37.58A4,4,0,0,1,359,124.59Z" transform="translate(-6.27 -13.91)"/><path class="cls-11" d="M387.61,95.25l2.51,14.51A2.47,2.47,0,0,1,388,112.5l-27.49,4.75a.18.18,0,0,1-.17-.06l-1.67-2.9a1.46,1.46,0,0,0-2.63.46l-.59,3.29a.19.19,0,0,1-.15.11l-27.49,4.75a2.48,2.48,0,0,1-2.95-1.86l-2.51-14.51a2.47,2.47,0,0,1,2.16-2.74l27.29-4.72a1.33,1.33,0,0,1,.9.17l.9.57a1.82,1.82,0,0,0,2.36-.41l.65-.83a1.34,1.34,0,0,1,.8-.47l27.29-4.71A2.48,2.48,0,0,1,387.61,95.25Z" transform="translate(-6.27 -13.91)"/><path class="cls-12" d="M355,100.89a2.22,2.22,0,0,1,0-.89,1.78,1.78,0,0,1-1.44-.19l-.9-.57a1.33,1.33,0,0,0-.9-.17l-27.29,4.72a2.47,2.47,0,0,0-2.16,2.74L324.82,121a2.48,2.48,0,0,0,2.95,1.86l27.49-4.75a.19.19,0,0,0,.15-.11l.59-3.29a1.37,1.37,0,0,1,1.17-1.08L355,100.89Z" transform="translate(-6.27 -13.91)"/><path class="cls-13" d="M350.3,105l1.4,8.13a1.6,1.6,0,0,1-1.4,1.78l-18.89,3.27a1.62,1.62,0,0,1-1.93-1.21l-1.4-8.13a1.61,1.61,0,0,1,1.4-1.78l18.89-3.27A1.62,1.62,0,0,1,350.3,105Z" transform="translate(-6.27 -13.91)"/><path class="cls-9" d="M383,99.34l1.4,8.13a1.6,1.6,0,0,1-1.4,1.78l-18.9,3.27a1.61,1.61,0,0,1-1.92-1.21l-1.4-8.13a1.6,1.6,0,0,1,1.4-1.78L381,98.13A1.62,1.62,0,0,1,383,99.34Z" transform="translate(-6.27 -13.91)"/><path class="cls-14" d="M348.37,103.77,329.48,107a1.6,1.6,0,0,0-1.4,1.78l.15.88,10-1.74c5.37-.92,10.41,2.24,11.24,7.07h0l.81-.14a1.6,1.6,0,0,0,1.4-1.78L350.3,105A1.63,1.63,0,0,0,348.37,103.77Z" transform="translate(-6.27 -13.91)"/><path class="cls-10" d="M381,98.13l-18.89,3.27a1.6,1.6,0,0,0-1.4,1.78l.15.88,10-1.74c5.37-.92,10.41,2.24,11.24,7.07h0l.81-.14a1.6,1.6,0,0,0,1.4-1.78L383,99.34A1.63,1.63,0,0,0,381,98.13Z" transform="translate(-6.27 -13.91)"/><path class="cls-5" d="M399.57,118.91a3.72,3.72,0,1,1,1.26,7.3,4.77,4.77,0,0,1-1.46,0,4.18,4.18,0,0,1-3.26,2.59,3.93,3.93,0,0,1-4.69-3,3.45,3.45,0,0,1,.3-2.08,4,4,0,0,1-.17-.62,3.92,3.92,0,0,1,3.43-4.35,4.34,4.34,0,0,1,3.12.62A4.76,4.76,0,0,1,399.57,118.91Z" transform="translate(-6.27 -13.91)"/><path class="cls-6" d="M396.71,125.05A3.47,3.47,0,0,1,397,123a3.15,3.15,0,0,1-.17-.62,3.54,3.54,0,0,1,1-3.07,4.36,4.36,0,0,0-2.85-.46,3.92,3.92,0,0,0-3.43,4.35,4,4,0,0,0,.17.62,3.47,3.47,0,0,0-.3,2.09,3.93,3.93,0,0,0,4.69,2.94,4.37,4.37,0,0,0,2.43-1.27A3.54,3.54,0,0,1,396.71,125.05Z" transform="translate(-6.27 -13.91)"/><path class="cls-5" d="M384.51,124.39a3.44,3.44,0,0,1,.89,5.16,4.45,4.45,0,0,1-5.74,1,3.73,3.73,0,0,1-1-.93,4.45,4.45,0,0,1-4.26-.19,3.44,3.44,0,0,1-.89-5.16,4.41,4.41,0,0,1,1.84-1.33,3.67,3.67,0,0,1,.37-.57,4.44,4.44,0,0,1,5.73-1,3.51,3.51,0,0,1,1.65,2.46A4.17,4.17,0,0,1,384.51,124.39Z" transform="translate(-6.27 -13.91)"/><path class="cls-6" d="M378.92,126.24a4.26,4.26,0,0,1,1.84-1.33,3.67,3.67,0,0,1,.37-.57,4.13,4.13,0,0,1,1.75-1.29,3.6,3.6,0,0,0-1.43-1.68,4.44,4.44,0,0,0-5.73,1,3.67,3.67,0,0,0-.37.57,4.41,4.41,0,0,0-1.84,1.33,3.44,3.44,0,0,0,.89,5.16,4.42,4.42,0,0,0,4,.31A3.48,3.48,0,0,1,378.92,126.24Z" transform="translate(-6.27 -13.91)"/><path class="cls-5" d="M324,129.35a3.44,3.44,0,0,1-.65,2,3.5,3.5,0,0,1,.07.65,3.93,3.93,0,0,1-4.12,3.7,4.33,4.33,0,0,1-3-1.15,4.51,4.51,0,0,1-1.53.27,3.73,3.73,0,1,1,0-7.41,4.53,4.53,0,0,1,1.44.24,4.19,4.19,0,0,1,3.66-2A3.92,3.92,0,0,1,324,129.35Z" transform="translate(-6.27 -13.91)"/><path class="cls-6" d="M316,133.53a3.92,3.92,0,0,1,4.11-3.7,4.59,4.59,0,0,1,1.45.24,4,4,0,0,1,2.3-1.8,4.1,4.1,0,0,0-3.94-2.62,4.19,4.19,0,0,0-3.66,2,4.53,4.53,0,0,0-1.44-.24,3.73,3.73,0,1,0,0,7.41,4.59,4.59,0,0,0,1.35-.21A3.49,3.49,0,0,1,316,133.53Z" transform="translate(-6.27 -13.91)"/><path class="cls-15" d="M348.17,102.59l-18.89,3.26a2.89,2.89,0,0,0-2.51,3.2l1.4,8.13a2.89,2.89,0,0,0,3.44,2.16l18.89-3.26a2.89,2.89,0,0,0,2.51-3.2l-1.4-8.12A2.89,2.89,0,0,0,348.17,102.59Zm2.22,10.75a.34.34,0,0,1-.3.37L331.2,117a.34.34,0,0,1-.4-.26l-1.41-8.13a.34.34,0,0,1,.3-.37L348.58,105a.34.34,0,0,1,.4.26l1.41,8.13Z" transform="translate(-6.27 -13.91)"/><path class="cls-15" d="M364.26,113.7l18.89-3.26a2.89,2.89,0,0,0,2.51-3.2l-1.4-8.13A2.89,2.89,0,0,0,380.82,97l-4.12.71a1.21,1.21,0,1,0,.41,2.37l4.12-.72a.34.34,0,0,1,.4.26L383,107.7a.34.34,0,0,1-.3.37l-18.89,3.27a.34.34,0,0,1-.4-.26L362,103a.33.33,0,0,1,.3-.37l8.51-1.47a1.21,1.21,0,1,0-.4-2.37l-8.52,1.47a2.89,2.89,0,0,0-2.51,3.2l1.4,8.13A2.89,2.89,0,0,0,364.26,113.7Z" transform="translate(-6.27 -13.91)"/><path class="cls-15" d="M336.89,81.21a4.06,4.06,0,0,1,1.3-.06,1.24,1.24,0,0,0,.43,0,1.44,1.44,0,0,0,.73-.36,1.15,1.15,0,0,0,.38-1.06v0a3.07,3.07,0,0,1,.78-2.57,1.13,1.13,0,0,0-.06-1.6l-.11-.1a1.35,1.35,0,0,0-1-.38,1.42,1.42,0,0,0-1,.44,3.79,3.79,0,0,1-2.11,1.1h-.1a1.38,1.38,0,0,0-1,.62,1.11,1.11,0,0,0-.08,1.07,3.28,3.28,0,0,1,.24.75,3.08,3.08,0,0,1,0,.91,1.07,1.07,0,0,0,.41,1A1.36,1.36,0,0,0,336.89,81.21Z" transform="translate(-6.27 -13.91)"/><path class="cls-15" d="M352.85,80a1.34,1.34,0,0,0,1.19.38h0a1.33,1.33,0,0,0,1-.7,3.71,3.71,0,0,1,2.67-1.89,3.9,3.9,0,0,1,1.32,0,1.46,1.46,0,0,0,1.16-.3,1.23,1.23,0,0,0,.46-1,2.89,2.89,0,0,1,.07-.88,1.13,1.13,0,0,0-.47-1.17,1.44,1.44,0,0,0-1.38-.11,4.14,4.14,0,0,1-.91.27,3.84,3.84,0,0,1-2-.18,1.45,1.45,0,0,0-1.22.09,1.24,1.24,0,0,0-.65,1,3.31,3.31,0,0,1-1.46,2.38,1.21,1.21,0,0,0-.54.93,1.1,1.1,0,0,0,.43.94A3.11,3.11,0,0,1,352.85,80Z" transform="translate(-6.27 -13.91)"/><path class="cls-15" d="M399.37,117.73a6.3,6.3,0,0,0-1.17.32,5.78,5.78,0,0,0-3.43-.42,5.2,5.2,0,0,0-4.53,5.76c0,.13.05.26.08.39a4.45,4.45,0,0,0-.21,2.31,5.19,5.19,0,0,0,6.2,3.9,5.62,5.62,0,0,0,3.87-2.52,4.8,4.8,0,0,0,.85-.08,4.93,4.93,0,1,0-1.66-9.66Zm1.26,7.3a3,3,0,0,1-1,0,1.4,1.4,0,0,0-1.53.85,2.85,2.85,0,0,1-2.21,1.75,2.66,2.66,0,0,1-3.17-2,2.32,2.32,0,0,1,.21-1.41,1.08,1.08,0,0,0,0-.88,2.72,2.72,0,0,1-.12-.42,2.66,2.66,0,0,1,2.32-2.94,2.91,2.91,0,0,1,2.11.42,1.45,1.45,0,0,0,1.49,0,3,3,0,0,1,1-.36,2.52,2.52,0,1,1,.86,4.94Z" transform="translate(-6.27 -13.91)"/><path class="cls-15" d="M384.24,122.88A4.52,4.52,0,0,0,383,121l-.41-6.35,5.53-1a3.75,3.75,0,0,0,3.27-4.15L388.92,95a3.29,3.29,0,0,0-1.24-2l-7.19-7.72,0,0a5.31,5.31,0,0,0-3.79-3.77,6.16,6.16,0,0,0,.67-4,5.77,5.77,0,0,0-5.62-4.55,5.17,5.17,0,0,0,.21-2.56c-.53-3-3.71-5-7.1-4.47a6.78,6.78,0,0,0-3.06,1.37,6.57,6.57,0,0,0-5.29-1.36,8,8,0,0,0-1.12.29,6.23,6.23,0,0,0-6.47-2.73,6.3,6.3,0,0,0-5,4.15,6.5,6.5,0,0,0-1.81.07,6.81,6.81,0,0,0-2.67,1.08,6.55,6.55,0,0,0-4.66-.89c-3.38.58-5.7,3.53-5.19,6.57a5.8,5.8,0,0,0-3.89,6.24,4.58,4.58,0,0,0,.15.64,5.61,5.61,0,0,0-2.48,5.49,5.5,5.5,0,0,0,3.54,4.12,5.07,5.07,0,0,0-1.17,3.77l0,0-4.18,9.68a3.32,3.32,0,0,0-.49,2.35l2.51,14.51a3.74,3.74,0,0,0,4.47,2.81l5.59-1,3.68,12.78a5,5,0,0,0,5.8,3.3L379.12,133a5.53,5.53,0,0,0,1.84-.65,6.14,6.14,0,0,0,2,0,5.73,5.73,0,0,0,3.55-2.07,4.62,4.62,0,0,0,1-3.68,4.69,4.69,0,0,0-2.17-3.15A6.37,6.37,0,0,0,384.24,122.88Zm-4-3.26a6,6,0,0,0-5.09,1.47L374.7,116l5.29-.91ZM369,132.28l-2-14.93,5.08-.88.67,6.78c-.1.11-.2.22-.29.34a4.56,4.56,0,0,0,1,6.7l.12,1.21Zm-7,1.22-1.76-10.16a1.34,1.34,0,0,0-2.62.46L359.32,134l-4.39.76L351.79,120l3.67-.64a1.46,1.46,0,0,0,1.26-1.14l.59-3.29s0,0,.06-.05.06,0,.08,0l1.66,2.9a1.33,1.33,0,0,0,.14.19,1.55,1.55,0,0,0,1.43.46l3.67-.63,2,14.94-4.39.76ZM347.73,136l-3.65-14.65,5.08-.88,3.14,14.74-4.57.79Zm35.84-43.59-2.34.4-.2-3.12Zm-5.3-4.19.32,5-6,1-.78-7.94a2.68,2.68,0,0,1,.62-1.51,3.18,3.18,0,0,1,2.08-1.15A3,3,0,0,1,377.89,86l.38,2.19Zm-14.18,7.56-.95-7.17s0-.06,0-.09v0a3.1,3.1,0,0,1,6.07-1.05.75.75,0,0,0,0,.16l.71,7.18-5.84,1Zm-6.92,1.19a2.7,2.7,0,0,0-1.67,1l-.65.83a.47.47,0,0,1-.24.14.36.36,0,0,1-.27-.06l-.89-.56a2.76,2.76,0,0,0-1.9-.36l-4.29.74-1.53-7.15h0v0a3.09,3.09,0,0,1,6.06-1v.08l1,5.54a1.34,1.34,0,0,0,2.62-.45L354.44,90v-.09a3.1,3.1,0,0,1,6.07-1v0h0l1,7.25Zm-27,4.67-1.4-4.86-.38-2.2a3,3,0,0,1,2.43-3.32,3.24,3.24,0,0,1,2.35.38,2.62,2.62,0,0,1,1.09,1.22l1.93,7.74-6,1Zm8.65-1.49-1.74-7a.77.77,0,0,0,0-.15,3.1,3.1,0,0,1,6.07-1v0s0,.06,0,.09l1.51,7.07-5.84,1ZM330,88.91A3.41,3.41,0,0,1,326,86.35a3.29,3.29,0,0,1,2-3.49,1.32,1.32,0,0,0,.71-.72,1.13,1.13,0,0,0-.07-1,2.85,2.85,0,0,1-.36-1,3.41,3.41,0,0,1,3-3.77h.09a1.38,1.38,0,0,0,1-.61,1.1,1.1,0,0,0,.09-1.08,3.28,3.28,0,0,1-.24-.75,3.41,3.41,0,0,1,3-3.77,3.64,3.64,0,0,1,3.23,1,1.33,1.33,0,0,0,1,.37,1.43,1.43,0,0,0,1-.43,3.73,3.73,0,0,1,2.1-1.1,3.82,3.82,0,0,1,2,.16,1.45,1.45,0,0,0,1.25-.13,1.2,1.2,0,0,0,.61-1,3.47,3.47,0,0,1,3-3.23,3.44,3.44,0,0,1,4,2.37,1.18,1.18,0,0,0,.81.84,1.45,1.45,0,0,0,1.25-.17,3.78,3.78,0,0,1,1.5-.59,3.58,3.58,0,0,1,3.65,1.48,1.31,1.31,0,0,0,1.11.58,1.41,1.41,0,0,0,1.16-.58,3.8,3.8,0,0,1,2.43-1.5,3.41,3.41,0,0,1,4.06,2.56,3.15,3.15,0,0,1-1.2,3,1.14,1.14,0,0,0-.24,1.59,1.39,1.39,0,0,0,1.71.34,4.4,4.4,0,0,1,1.08-.35,3.41,3.41,0,0,1,4.06,2.56,3.69,3.69,0,0,1-1.23,3.49,6,6,0,0,0-3.2,2c-.13.16-.24.32-.35.48a6.16,6.16,0,0,0-8.69,1.5,6.16,6.16,0,0,0-8.69,1.5,6.17,6.17,0,0,0-8.7,1.5,6.16,6.16,0,0,0-8.69,1.5l-.49-.33a6.08,6.08,0,0,0-4.38-.71l-.12,0ZM326.63,99l.87,3-2.35.4Zm-.5,21.77-2.5-14.51a1,1,0,0,1,.08-.62,1,1,0,0,0,.15-.25,1.37,1.37,0,0,1,.82-.46l27.24-4.71.85.54a3.26,3.26,0,0,0,4.23-.73l.62-.79,27.24-4.71a1.31,1.31,0,0,1,.92.17,1.3,1.3,0,0,0,.23.18,1,1,0,0,1,.29.56L388.8,110a1.2,1.2,0,0,1-1.05,1.33l-26.66,4.61h0l-1.28-2.22a2.84,2.84,0,0,0-5.12.88l-.46,2.52-26.66,4.61A1.21,1.21,0,0,1,326.13,120.81Zm13.7,14.41-3.62-12.56,5.23-.9,3.65,14.65-2.45.42A2.41,2.41,0,0,1,339.83,135.22Zm44.5-6.35a3,3,0,0,1-3.88.67,2.24,2.24,0,0,1-.68-.62,1.33,1.33,0,0,0-1.32-.49,1.29,1.29,0,0,0-.38.12,3,3,0,0,1-2.88-.12,2.33,2.33,0,0,1-.6-3.49,2.83,2.83,0,0,1,1.24-.9,1.38,1.38,0,0,0,.71-.61,2.38,2.38,0,0,1,.25-.39,3,3,0,0,1,3.88-.67,2.35,2.35,0,0,1,1.11,1.66,1.19,1.19,0,0,0,1,1,2.73,2.73,0,0,1,1,.37A2.33,2.33,0,0,1,384.33,128.87Z" transform="translate(-6.27 -13.91)"/><path class="cls-15" d="M319.93,124.45a5.67,5.67,0,0,0-4.24,1.82,6.22,6.22,0,0,0-.86-.06,4.93,4.93,0,1,0,0,9.81,6.14,6.14,0,0,0,1.21-.13,5.72,5.72,0,0,0,3.3,1,5.21,5.21,0,0,0,5.45-4.9c0-.14,0-.27,0-.4a4.53,4.53,0,0,0,.61-2.25A5.21,5.21,0,0,0,319.93,124.45Zm2.34,6.25a1.11,1.11,0,0,0-.19.86,2.32,2.32,0,0,1,0,.44,2.66,2.66,0,0,1-2.78,2.5,2.91,2.91,0,0,1-2-.78,1.43,1.43,0,0,0-1-.37,1.41,1.41,0,0,0-.49.09,3.12,3.12,0,0,1-1,.18,2.52,2.52,0,1,1,0-5,2.9,2.9,0,0,1,1,.16,1.4,1.4,0,0,0,1.65-.57,2.85,2.85,0,0,1,2.48-1.35,2.66,2.66,0,0,1,2.78,2.5A2.29,2.29,0,0,1,322.27,130.7Z" transform="translate(-6.27 -13.91)"/><path class="cls-5" d="M43.74,117.52a5,5,0,0,1,1.71,9.9,4.41,4.41,0,0,1-1.7,0,4.72,4.72,0,0,1-3.7,3.4,4.89,4.89,0,0,1-5.55-4.14,5.25,5.25,0,0,1,.28-2.8,5.88,5.88,0,0,1-.22-.85,4.89,4.89,0,0,1,3.84-5.76,4.6,4.6,0,0,1,3.66,1A4.32,4.32,0,0,1,43.74,117.52Z" transform="translate(-6.27 -13.91)"/><path class="cls-6" d="M40.62,125.71a5.17,5.17,0,0,1,.29-2.8,4.84,4.84,0,0,1-.23-.85,5.14,5.14,0,0,1,1-4.12,4.6,4.6,0,0,0-3.33-.71A4.89,4.89,0,0,0,34.56,123a5.88,5.88,0,0,0,.22.85,5.26,5.26,0,0,0-.28,2.8,4.89,4.89,0,0,0,5.55,4.14,4.55,4.55,0,0,0,2.78-1.64A5.17,5.17,0,0,1,40.62,125.71Z" transform="translate(-6.27 -13.91)"/><path class="cls-15" d="M43.47,115.91a6.2,6.2,0,0,0-1.35.41,6.07,6.07,0,0,0-4-.7A6.5,6.5,0,0,0,33,123.25c0,.18.07.35.11.53A7,7,0,0,0,33,126.9a6.48,6.48,0,0,0,7.35,5.48,6.16,6.16,0,0,0,4.41-3.27,5.52,5.52,0,0,0,1-.09,6.66,6.66,0,0,0-2.26-13.11Zm1.71,9.91a3.18,3.18,0,0,1-1.15,0,1.51,1.51,0,0,0-1.75,1.09,3.22,3.22,0,0,1-2.51,2.3,3.31,3.31,0,0,1-3.75-2.8,3.63,3.63,0,0,1,.19-1.9,1.65,1.65,0,0,0,0-1.18,3.73,3.73,0,0,1-.15-.57,3.31,3.31,0,0,1,2.59-3.9,3.14,3.14,0,0,1,2.48.64,1.49,1.49,0,0,0,1.73.1,3,3,0,0,1,1.14-.45,3.41,3.41,0,0,1,1.16,6.7Z" transform="translate(-6.27 -13.91)"/><path class="cls-5" d="M67.21,41.28a7.73,7.73,0,0,1-.55,2.93,7.46,7.46,0,0,1,.06.95c0,3-1.55,5.43-3.46,5.43a3.06,3.06,0,0,1-2.5-1.68,2.41,2.41,0,0,1-1.29.39c-1.91,0-3.46-2.43-3.46-5.43s1.55-5.44,3.46-5.44a2.36,2.36,0,0,1,1.21.35c.58-1.74,1.74-2.94,3.08-2.94C65.67,35.84,67.21,38.28,67.21,41.28Z" transform="translate(-6.27 -13.91)"/><path class="cls-6" d="M60.46,47.42c0-3,1.55-5.44,3.46-5.44a2.36,2.36,0,0,1,1.21.35,4.59,4.59,0,0,1,1.94-2.63c-.44-2.23-1.75-3.86-3.32-3.86-1.33,0-2.49,1.2-3.07,2.94a2.36,2.36,0,0,0-1.21-.35c-1.91,0-3.46,2.43-3.46,5.44s1.55,5.43,3.46,5.43A2.32,2.32,0,0,0,60.61,49,8,8,0,0,1,60.46,47.42Z" transform="translate(-6.27 -13.91)"/><path class="cls-15" d="M63.75,34.09c-1.4,0-2.7,1-3.56,2.67a3,3,0,0,0-.72-.09c-2.52,0-4.58,3.23-4.58,7.2s2.06,7.19,4.58,7.19a3,3,0,0,0,1-.18,3.6,3.6,0,0,0,2.77,1.47c2.53,0,4.58-3.22,4.58-7.19,0-.19,0-.39,0-.59a10.45,10.45,0,0,0,.51-3.29C68.33,37.31,66.28,34.09,63.75,34.09Zm2,9.17a2.65,2.65,0,0,0-.16,1.26,4.88,4.88,0,0,1,0,.64c0,2-1,3.67-2.34,3.67a2,2,0,0,1-1.69-1.14,1,1,0,0,0-.81-.54.84.84,0,0,0-.42.12,1.59,1.59,0,0,1-.87.27c-1.29,0-2.34-1.65-2.34-3.67s1-3.68,2.34-3.68a1.58,1.58,0,0,1,.82.24c.53.31,1.13,0,1.39-.84.4-1.22,1.2-2,2.07-2,1.3,0,2.34,1.65,2.34,3.68A5.17,5.17,0,0,1,65.72,43.26Z" transform="translate(-6.27 -13.91)"/><path class="cls-5" d="M20.94,117.56a3.47,3.47,0,0,1-.66,2,3.3,3.3,0,0,1,.07.64,3.92,3.92,0,0,1-4.12,3.7,4.3,4.3,0,0,1-3-1.15,4.62,4.62,0,0,1-1.54.27,3.72,3.72,0,1,1,0-7.4,4.59,4.59,0,0,1,1.45.23,4.19,4.19,0,0,1,3.65-2A3.93,3.93,0,0,1,20.94,117.56Z" transform="translate(-6.27 -13.91)"/><path class="cls-6" d="M12.9,121.74A3.93,3.93,0,0,1,17,118a4.53,4.53,0,0,1,1.44.24,4,4,0,0,1,2.3-1.79,4.09,4.09,0,0,0-3.94-2.63,4.19,4.19,0,0,0-3.65,2,4.59,4.59,0,0,0-1.45-.23,3.72,3.72,0,1,0,0,7.4,4.35,4.35,0,0,0,1.36-.21A3.21,3.21,0,0,1,12.9,121.74Z" transform="translate(-6.27 -13.91)"/><path class="cls-15" d="M16.82,112.65a5.66,5.66,0,0,0-4.24,1.83,6.11,6.11,0,0,0-.86-.06,4.93,4.93,0,1,0,0,9.8,6.13,6.13,0,0,0,1.21-.12,5.79,5.79,0,0,0,3.3,1,5.2,5.2,0,0,0,5.45-4.9,2.75,2.75,0,0,0,0-.4,4.49,4.49,0,0,0,.61-2.24A5.2,5.2,0,0,0,16.82,112.65Zm2.34,6.26a1.09,1.09,0,0,0-.19.85,2.47,2.47,0,0,1,.05.44,2.67,2.67,0,0,1-2.79,2.51,2.92,2.92,0,0,1-2-.78,1.48,1.48,0,0,0-1.46-.29,3,3,0,0,1-1,.18,2.52,2.52,0,1,1,0-5,3,3,0,0,1,1,.17,1.41,1.41,0,0,0,1.65-.57,2.82,2.82,0,0,1,2.47-1.36,2.65,2.65,0,0,1,2.78,2.51A2.34,2.34,0,0,1,19.16,118.91Z" transform="translate(-6.27 -13.91)"/></svg>