<?xml version="1.0" encoding="iso-8859-1"?>
<!-- Generator: Adobe Illustrator 18.0.0, SVG Export Plug-In . SVG Version: 6.00 Build 0)  -->
<!DOCTYPE svg PUBLIC "-//W3C//DTD SVG 1.1//EN" "http://www.w3.org/Graphics/SVG/1.1/DTD/svg11.dtd">
<svg version="1.1" id="Capa_1" xmlns="http://www.w3.org/2000/svg" xmlns:xlink="http://www.w3.org/1999/xlink" x="0px" y="0px"
	 viewBox="0 0 478.497 478.497" style="enable-background:new 0 0 478.497 478.497;" xml:space="preserve">
<g>
	<path d="M99.386,197.715c4.727-1.236,8.025-5.521,8.025-10.412v-45.406c0-5.948-4.822-10.763-10.763-10.763H72.806
		c-5.94,0-10.763,4.814-10.763,10.763c0,5.942,4.822,10.755,10.763,10.755h8.025v25.499c-2.161,1.081-7.216,1.804-13.561,1.804
		c-22.599,0-38.323-14.83-38.323-39.963c0-26.392,17.342-39.418,40.313-39.418c7.356,0,13.188,0.707,18.055,1.835
		c5.91,1.354,11.82-2.215,13.344-8.079c0.809-3.064,0.312-6.315-1.336-9.012c-1.65-2.691-4.324-4.596-7.42-5.273
		c-6.049-1.322-13.609-2.255-22.287-2.255c-39.955,0-69.442,23.15-69.614,63.65c-0.17,17.901,5.972,33.812,17.171,44.309
		c11.228,10.849,27.326,16.447,49.566,16.447C78.654,202.193,90.552,200.016,99.386,197.715z"/>
	<path d="M157.396,169.65h34.916l6.377,21.221c1.789,5.972,7.278,10.056,13.515,10.056c4.48,0,8.694-2.131,11.354-5.74
		c2.66-3.609,3.453-8.266,2.115-12.551l-29.036-93.651c-1.835-5.902-7.294-9.93-13.485-9.93h-15.319
		c-6.205,0-11.68,4.052-13.484,9.986l-28.85,94.404c-1.26,4.098-0.497,8.554,2.053,11.999c2.551,3.445,6.595,5.483,10.887,5.483
		c6.066,0,11.4-4.052,13.034-9.916L157.396,169.65z M168.61,123.171c1.976-7.052,3.795-16.275,5.6-23.5h0.373
		c1.804,7.226,3.981,16.276,6.128,23.5l7.605,25.857h-26.951L168.61,123.171z"/>
	<path d="M378.727,186.844l-5.21-95.167c-0.39-7.076-6.253-12.621-13.344-12.621h-13.609c-5.802,0-10.935,3.741-12.723,9.263
		l-10.03,31.237c-3.982,13.561-8.135,29.659-11.572,43.756h-0.545c-2.706-14.284-6.501-29.471-10.311-43.57l-9.099-31.089
		c-1.664-5.686-6.891-9.597-12.816-9.597h-14.199c-7.03,0-12.862,5.475-13.314,12.505l-6.127,95.944
		c-0.218,3.475,1.011,6.898,3.391,9.441c2.379,2.542,5.722,3.982,9.207,3.982c6.733,0,12.287-5.297,12.597-12.031l1.618-34.255
		c0.901-15.187,1.446-33.999,2.177-50.453h0.357c2.894,15.912,7.046,33.268,11.013,47.553l12.131,43.936
		c0.529,1.929,2.285,3.265,4.292,3.265h14.837c1.96,0,3.671-1.266,4.262-3.125l13.843-44.435
		c4.713-14.278,9.782-31.642,13.577-47.195h0.545c0,17.722,0.529,35.437,1.088,50.089l1.292,33.811
		c0.28,7.17,6.174,12.84,13.344,12.84c3.671,0,7.17-1.51,9.705-4.177C377.623,194.092,378.929,190.507,378.727,186.844z"/>
	<path d="M467.191,178.32h-38.789v-28.928h33.64c6.19,0,11.213-5.023,11.213-11.213c0,0-5.023-11.214-11.213-11.214h-33.64v-25.305
		h36.27c6.253,0,11.306-5.061,11.306-11.306c0-6.237-5.053-11.299-11.306-11.299h-52.63c-6.253,0-11.307,5.063-11.307,11.299v99.273
		c0,6.237,5.055,11.299,11.307,11.299h55.15c6.253,0,11.306-5.063,11.306-11.299C478.497,183.383,473.443,178.32,467.191,178.32z"/>
	<path d="M81.47,274.855c-35.99,0-59.304,27.303-59.304,63.83c0,34.712,21.167,62.023,57.313,62.023
		c35.631,0,59.862-24.231,59.862-64.194C139.341,302.89,118.903,274.855,81.47,274.855z M80.925,378.826
		c-18.445,0-29.643-16.813-29.643-40.686c0-23.679,10.839-41.401,29.471-41.401c18.99,0,29.472,18.794,29.472,40.678
		C110.225,361.104,99.572,378.826,80.925,378.826z"/>
	<path d="M239.127,276.846c-6.066,0-11.4,3.982-13.142,9.791l-12.613,42.28c-4.168,13.927-7.979,28.399-11.043,43.041h-0.529
		c-2.908-15.195-6.703-29.114-10.871-43.578l-11.867-41.247c-1.742-6.088-7.326-10.288-13.671-10.288
		c-4.542,0-8.802,2.171-11.478,5.84c-2.676,3.671-3.453,8.399-2.053,12.723l30.063,93.781c1.819,5.678,7.092,9.527,13.048,9.527
		h12.333c5.88,0,11.105-3.757,12.988-9.331l31.82-94.452c1.416-4.184,0.715-8.788-1.851-12.381
		C247.68,278.969,243.543,276.846,239.127,276.846z"/>
	<path d="M337.73,376.113h-38.773v-28.929h33.624c6.19,0,11.213-5.023,11.213-11.214c0,0-5.023-11.213-11.213-11.213h-33.624
		v-25.303h36.254c6.253,0,11.306-5.063,11.306-11.299c0-6.245-5.053-11.307-11.306-11.307h-50.267
		c-7.543,0-13.655,6.12-13.655,13.664v94.544c0,7.543,6.112,13.663,13.655,13.663h52.786c6.253,0,11.306-5.063,11.306-11.299
		C349.036,381.174,343.983,376.113,337.73,376.113z"/>
	<path d="M455.246,311.023c0-11.213-3.982-19.713-11.214-25.497c-8.678-6.875-21.353-9.581-39.426-9.581
		c-8.834,0-17.124,0.389-24.262,1.019c-7.061,0.621-12.459,6.539-12.459,13.609v94.482c0,7.543,6.112,13.663,13.671,13.663
		c7.544,0,13.656-6.12,13.656-13.663V350.8h8.32c11.198,0.178,16.439,4.34,19.705,19.527c1.82,7.559,3.453,13.825,4.884,18.632
		c1.727,5.794,7.044,9.759,13.08,9.759h0.559c4.153,0,8.087-1.945,10.623-5.241c2.519-3.305,3.375-7.598,2.301-11.61
		c-1.492-5.552-3.078-11.72-4.681-17.504c-3.08-11.207-7.777-19.348-16.284-22.785v-0.545
		C444.203,337.245,455.246,326.569,455.246,311.023z M406.053,330.908h-10.839v-33.632c1.975-0.358,5.77-0.903,12.473-0.903
		c12.644,0.18,20.248,5.786,20.248,16.999C427.935,324.033,419.801,330.908,406.053,330.908z"/>
</g>
<g>
</g>
<g>
</g>
<g>
</g>
<g>
</g>
<g>
</g>
<g>
</g>
<g>
</g>
<g>
</g>
<g>
</g>
<g>
</g>
<g>
</g>
<g>
</g>
<g>
</g>
<g>
</g>
<g>
</g>
</svg>
