<?xml version="1.0" encoding="UTF-8"?>
<svg width="287.29" height="417.05" font-family="'Times New Roman'" viewBox="0 0 81.08 117.70" xmlns="http://www.w3.org/2000/svg">
 <path d="m52.23,15.13 .33.26 .17.33 .33.17-.08.33 .08.33v.33l.17.34 .17.33-.09.33 .16.33-.07.34 .16.33 .25.33h.33l.33.17 .33.24 .17.33 .09.33-.33.26-.26.33-.33.33-.33.34-.41.33-.34.17-.25.33-.33.24-.25.33v.34l-.16.33-.26.33-.33.33-.25.34h.34l.83-.25 .33-.09 .17-.33v-.33l.33-.17 .24.34 .26.33 .08-.33-.25-.34 .08-.33 .26-.33 .33-.17h.33 .33l.34.09h.33l.33-.09 .33-.08 .34-.16h.33l.33.08 .5.33-.26.33-.07.33-.09.34-.17.33-.24.33-.33.33-.34.09-.33-.09-.33.26-.33.16-.34-.08-.33-.08-.33.08-.33.08h-.34-.33l-.33-.16-.42-.09-.34.17v.33l.42-.25 .34.17 .33.08 .33.09h.34l.33-.17 .33.08h.33l.34.09h.33l.33-.17 .08.33 .33-.25 .09-.33 .33-.08 .33-.26h.34l.07-.33 .26-.33 .17-.33 .24-.34 .33-.16 .33.16 .34.09 .33.25 .33.08 .33.08 .34.26 .33.16 .42.17 .41.17 .33-.09 .34.16 .33.26 .09.33 .33-.17 .33.08 .33.26 .25.33v.33l-.08.33 .08.34-.08.41v.33l-.25.33 .33.09 .25-.33 .08-.33 .09-.34 .33-.09 .25.34 .42-.08 .16-.33 .17-.34 .33.17 .33.17 .34.24 .33.17 .33.09 .33.33 .34.08 .33-.25 .33.17 .33.16 .34.25 .33-.17 .33.09 .25.33 .33-.16 .33-.17h.33l.42.24 .34.26h.33l.33.24 .33.26 .25.33 .25.33 .34.17 .33.16 .16.34 .25.33 .16.33 .34.33 .33.17 .33.17 .34.24 .33.17 .33.33 .09.33 .5-.08 .41.17 .33.08 .33.09 .17.33 .17.33-.08.33v.34l.16.33 .17.33v.33l.08.34v.33 .33l-.08.33-.09.34 .09.33v.33l-.17.33-.16.34v.33l-.09.33-.08.33-.16.34-.26.32-.24.33-.34.09h-.33l.17.33-.17.33-.25.34-.25.33-.33.24-.33.26h-.34l-.25.33-.33.24-.17.34-.17.33-.16.34-.17.33-.57.5-.26.34-.33.16-.41-.09-.33-.16-.09.33v.33l-.08.33-.26.34-.24.33-.09.33 .09.33 .33-.16v.33 .33l-.33.26-.17.33 .17.33v.33 .34l.08.33v.33l-.08.33v.34l-.17.33-.08.33-.17.33-.08.34-.25.33-.08.33-.09.33-.08.34v.33l-.25.33-.25.33-.16.34-.09.33v.33l-.08.33v.34l-.09.33-.16.33-.34.17-.33.57-.33.26-.08.33v.33l-.33.08-.33.33-.34.09v.33l-.25.34-.24.33v.33 .33 .34l-.34.33-.33.17-.33.07-.33.26v.33l-.34.17-.33-.09h-.33-.33-.34l-.33-.08-.33.08-.33.09-.34-.26-.33.09-.33.17h-.33l-.34.24-.33.26-.33.07-.33.26-.17.33h-.33-.5l-.33.17-.34.16h-.33l-.33.08-.33.17-.34.25-.25.33-.33.25-.34.25-.24.33-.17.34-.33.16-.33-.09-.26.34v.33l-.07.33-.09.33v.34l.09.33 .07.33-.07.58v.33h-.34v.33 .34l.17.33 .17.59-.17.33-.26.33-.33.08-.66.09-.25.33-.25.33-.33.26-.08.33-.17.33-.17.33-.16.34-.09.33-.17.33-.07.33-.17.34-.33.33-.34.24-.25.33-.33.25-.34.25-.33.17-.16-.33 .33-.09 .33-.25 .26-.33v-.33l.24-.33 .33-.17 .17-.33 .09-.41v-.33h-.34l-.33-.17v.33l.08.33-.08.34-.33.24-.09.33-.33.26-.25.33-.33.32-.25.33v.34 .33 .33 .33l-.17.34-.08.33-.16.33-.26.33-.33.17-.33.09-.34-.09-.07-.33 .16-.33 .34-.34 .33-.24 .33-.33 .08-.34v-.33l-.33.08-.25.33-.25.33-.08.09-.33-.33-.26-.33-.24-.33-.26-.34-.33-.24-.33-.26-.33-.16-.34-.25-.33-.25-.17-.33-.24-.34-.33.09-.33-.16-.26-.34-.33-.33-.33-.25-.17-.34h-.33l-.34.17-.33.09-.41.08 .25-.34 .25-.33 .24-.33 .26-.33 .24-.33 .34-.34 .25-.33 .33-.33 .25-.33 .16-.34 .34-.33 .33-.17 .33-.07 .33-.17 .17-.33 .33-.17 .33-.25 .34-.17h.33l.33-.24 .26-.34v-.33l.07-.33v-.33-.34l-.16-.33v-.33l-.25-.33-.33-.09-.33.16-.33.19 .16-.33v-.33-.33-.34-.33-.42l.17-.33 .08-.34-.08-.33-.33-.08h-.42l-.34-.08-.33-.25-.08-.33-.09-.33 .09-.33-.16-.34-.09-.33 .09-.33-.17-.33-.33-.17-.33-.17-.34-.16h-.33l-.33.07h-.33-.34l-.33.17-.33-.08-.42-.16 .09-.34 .07-.33v-.33l-.16-.33 .16-.34v-.33l-.16-.33v-.33-.34l-.17-.25 .42-.5-.5-.41 .08-.33 .17-.33 .09-.34 .07-.33 .17-.33 .09-.33 .16-.34 .17-.33-.25-.33-.25-.33-.33-.26-.33-.33-.34-.17-.08-.33-.17-.33 .09-.33 .16-.34 .17-.33-.09-.08-2.99-.16-.5-1.75h.33l.17-.34v-.33l-.24-.33 .16-.33v-.34l-.25-.33-.34-.17-.33-.07-.33-.17-.33-.17h-.34l-.33.08h-.33l-.33-.24-.34-.33h-.33l-.33-.09-.33-.17-.34-.24-.24-.34h-.33l-.33-.16-.34-.09h-.33-.33l-.34-.17-.25-.33-.33-.24-.33-.17-.34-.33-.33-.26-.08-.33 .08-.33v-.33l-.08-.34-.16-.33-.17-.33 .17-.33 .16-.34v-.33l-.16-.33-.34.09h-.33l-.33.08h-.33l-.34.08-.33.25-.25.33-.34.26-.33.07-.33.17-.25.33-.33.17-.33.09-.26.33-.24.33h-.33l-.33-.16-.34-.09-.33.09-.33.07-.27.07-.42-.08-.33.17-.33.16h-.34l-.33-.08-.17-.34 .09-.33v-1.24l-.09-.33v-.34l-.32-.08-.33.25-.33.17-.33.24-.26.33-.33.09-.33.08h-.34l-.24-.33-.33-.34-.35-.24-.33-.09-.33.09h-.33l.08-.33-.08-.42-.17-.34-.33-.33-.25-.33-.09-.33-.07-.33-.34-.25-.16-.33 .16-.33 .08-.34 .09-.33 .08-.33 .16-.33 .43-.17 .33-.33-.09-.33-.08-.34v-.33l.17-.33 .24-.33 .17-.34 .16-.33 .26-.33 .24-.33 .35-.17 .33-.17 .33-.09h.41 .33l.34-.33 .33-.16 .42-.17h.33l.32.17 .34-.17h.33l.09-.17 .41-2.32 .16-2.08v-.16l.09-.33v-.34l-.25-.33-.25-.33-.25-.33-.33-.08v-.33-.34-.33-.33l.09-.33h.33l.33-.26 .33.26 .34-.17-.09-.33-.34-.35-.33-.16-.33.09-.08-1.09h.33 .41 .34 .33 .33 .33l.43.09 .33-.26v-.33l.41.09 .33-.17 .33-.08h.34l.16.16 .17.33 .17.34 .33.33 .25.33 .34.17 .07.33 .34.09 .33.16 .33.17h.33l.34-.24 .16-.35 .33.26 .26-.42 .17-.34 .33-.24 .33-.25 .33-.17 .17-.33 .33-.33 .33-.08 .34-.09 .33-.17-.09-.33-.33-.08h-.33-.34l-.33-.16v-.34l.09-.33-.17-.33v-.33l-.09-.42-.24-.34-.33-.16-.33-.25v-.33h.33l.33.08 .33-.08 .34.17 .33.07 .33.17 .33.09 .34.17 .33.07 .33-.24 .24-.33h.34 .33l.33-.17h.33l.34-.09 .33-.16 .33-.25h.33l.43-.25 .41-.17 .25-.33-.15-.35 .32-.15 .33-.17h.33l.33.17v.59l-.33.24v.33l.25.34 .25.33 .08.33-.08.33-.09.34-.08.33v.33 .33 .34 .33l.17.33 .08.33 .09.34 .16.33 .34.16 .33.09 .41.25 .34.08h.33l.34-.16 .33-.17 .33-.15h.58 .33l.33-.35 .34-.16h.33l.42-.09 .08.09h.33l.33.24 .42-.08 .34-.25v-.33l-.34-.25 .08-.33 .33.08 .34.09 .33-.09 .33-.17h.33l.17.33h.33l.18.27 .33.08 .42.16 .34-.16 .33-.25 .33.08 .33-.08 .34.17 .33.08 .33-.25 .83-1.08 .17-.33 .24-.34 .26-.41 .24-.33 .26-.33-.09-.33 .25.06" fill="none" stroke="#000" stroke-width=".07"/>
 <path d="m17.22,3.5 .33-.17 .33-.17h.34l.33-.24 .16-.33-.07-.34-.34-.25-.33.09-.33.16-.42.34-.26.33-.24.33-.33.08-.34.17-.33.16-.32.35-.34.16h-.34-.33-.42l-.33.08-.25.33-.25.33-.33.34-.25-.34-.33-.08-.33.16-.26.33-.16.34-.17.33-.17.33-.07.33v.34 .33h-.34l-.33.09-.16.33-.17.33-.26.34-.33.16-.33.25-.08.33 .17.33v.34 .34h-.33v-.34l-.26-.34-.24-.33h-.34l.08.33v.34l-.08.34-.16.33-.17.33-.33-.09-.09.33v.34l.26.33 .07.33 .34.08 .08.33-.08.42 .08.34 .17.33-.17.33-.16.33 .16.34v.33 .33 .33 .34l-.08.33v.33l.16.33h.33v.34l-.33.24-.24.33-.26.33-.07.34-.09.33-.08.33-.33.09h-.34l-.33.18-.33-.1-.08.33v.33l.17.33 .08.34-.34.16h-.33l-.09.35 .26.57-.26-.5 .59.59 .33.33 .33.08 .34.09 .33.08 .33-.08 .33.24 .34.34 .33.16h.33l.33.17 .34-.17 .07-.33 .34.17 .33.16 .33.09 .33.25 .34.08h.5l.33.08 .33.17 .33.25 .34.17 .16.32 .26.33 .33.09 .33.17 .33.08 .17.33 .33.25 .34.17-.09.33 .16.33-.16.34 .33.07 .17.34 .42-.25 .33.08 .33-.17 .33-.16 .34-.17 .33-.08 .33.08 .33.33 .34-.16 .25-.33h.33l.34.08h.32l.33.17 .09.33 .41.08-1.57,1.99 .66-.33 .33-.16 .17.16v.33l.5.5 .41-2.32 .16-2.08v-.16l.09-.33v-.34l-.25-.33-.25-.33-.25-.33-.33-.08v-.33-.34-.33-.33l.09-.33h.33l.33-.26 .33.26 .34-.17-.09-.33-.34-.35-.33-.16-.33.09-.08-1.09h.33 .41 .34 .33 .33 .33l.43.09 .33-.26v-.33l.41.09 .33-.17 .33-.08h.34v-.34l-.17-.33-.24-.33-.26-.33 .26-.34 .24-.33 .09-.33-.09-.33-.24-.34-.17-.33-.17-.33-.09-.33v-.34-.33-.33-.33l.17-.34 .33-.33-.07-.33 .07-.33-.07-.34-.34-.07-.33.16-.33.08h-.5l-.33-.08-.34-.09-.33.09-.33.17h-.33l-.26-.33-.33-.26-.33-.33-.34-.16-.32-.09-.33-.16-.33-.08-.33-.09h-.43-.33l-.33-.08-.33.08-.34.17h-.33l-.16-.33-.34-.25-.09-.33 .09-.33v-.35l-.09-.33-.16-.33-.25-.33-.08-.34-.17-.33v-.33h-.33l-.25.33h-.33l.24-.41 .27-.33 .07-.33-.07-.42 .07-.34 .16-.33 .17-.33 .17-.33 .33-.33 .16-.33 .34-.16 .34-.18 .08-.33" fill="none" stroke="#000" stroke-width=".07"/>
 <path d="m25.27,18.94v-.33l-.17-.33-.24-.33-.26-.34 .26-.33 .24-.33 .09-.33-.09-.34-.24-.33-.17-.33-.17-.33-.09-.34v-.33-.33-.33-.34l.17-.33 .33-.33-.07-.33 .07-.34-.07-.33-.34-.08-.33.17-.33.08h-.5l-.33-.08-.34-.09-.33.09-.33.17h-.33l-.26-.34-.33-.25-.33-.33-.34-.16-.32-.09-.33-.16-.33-.08-.34-.09h-.42-.33l-.33-.08-.33.08-.34.17h-.33l-.17-.33-.33-.25-.09-.33 .09-.33v-.35l-.09-.33-.16-.33-.25-.33-.09-.34-.16-.33v-.33h-.33l-.25.33h-.33l.24-.41 .28-.33 .06-.33-.06-.43 .06-.33 .16-.33 .17-.33 .16-.34 .34-.32 .16-.33 .34-.17 .34-.17 .08-.34 .33-.16 .33-.17h.33l-.06.18-.33.17-.26.33-.24.34 .24.33 .17.33 .16.33v.33l-.33.33-.24.34-.17.33 .24.33 .17.33 .17.34 .33.16 .33-.16 .33-.17 .17-.33v-.34l-.08-.33-.16-.33-.34-.17v-.33l-.08-.33v-.33l.08-.33 .34-.08 .33-.34 .33-.07 .33-.09 .34-.09h.32l.25-.33 .25-.34-.34-.16-.32-.34 .32-.33 .34.09 .09.33 .24.34 .17.33 .33.16 .33-.08h.33l.34.16 .33.17 .33.25 .26.34 .33.33 .33.08 .33.08h.34 .33 .33 .33l.34-.16 .33.08h.33 .33l.34.25 .33.08 .33.09 .33.07h.34l.33.09h.33l.33-.09h.34l.33-.33h.33 .33l-.33-.24-.33-.08 .33-.17h.33 .34l.33.08 .33-.08 .33-.08 .67-.08h.33 .33l.34.16 .33-.08-.26.33-.33.16-.33-.16-.33-.08h-.34l.17.32 .26.33 .33.26h.33l.33.17 .34.07 .33.09 .33-.09 .33.17 .34.17 .33.08 .18.34 .06.33v.33l-.33.25-.08.33h.35l.32-.08h.33l.33-.09 .33.09 .17.33v.34l-.33.33-.33.16-.34.08-.33.33v.35 .33l.33.24 .17.34-.33.25h-.32-.35-.33l-.26.33v.32l-.07.34-.09.33v.33l.33.26 .33.24 .26.33 .18.34 .15.33-.25.33-.41.17-.43.25h-.33l-.33.25-.33.16-.34.09h-.33l-.33.17h-.33-.34l-.24.33-.33.24-.33-.07-.34-.17-.33-.09-.33-.17-.33-.07-.34-.17-.33.08-.33-.08h-.33v.33l.33.25 .33.16 .24.34 .09.42v.33l.17.33-.09.33v.34l.33.16h.34 .33l.33.08 .09.33-.33.17-.34.09-.33.08-.33.33-.17.33-.33.17-.33.25-.33.24-.17.34-.26.42-.33-.26-.16.35-.34.24h-.33l-.33-.17-.33-.16-.34-.09-.07-.33-.34-.17-.25-.33-.33-.33-.17-.34-.17-.33-.17-.18" fill="none" stroke="#000" stroke-width=".07"/>
 <path d="m5.49,21.2 .26.5-.34.17h-.33l-.42.09-.33.16-.33.34-.08.33-.17.33 .17.33-.09.34-.24.33-.26.32-.08.33v.34l-.25.33-.33.33-.08.33 .16.34-.08.33v.33l.08.33-.16.34v.33l.33.16 .33.17 .41-.17 .42-.07 .34-.09 .33-.08 .08.33-.17.33-.17.34-.33.16-.33.25-.24.33-.34.33-.16.33-.34.26-.33.33-.25.33-.08.34-.09.33 .09.33 .33.17h.41l.33-.09 .17-.33 .33-.34 .34-.16 .33-.08 .33.24h.33l.26.34 .33.09 .33.07 .17-.33 .25-.33 .17-.33 .17-.34 .07-.41 .09-.33 .17-.33 .08-.33 .33.24 .17-.33v-.34l.24-.33 .33-.16 .42-.17 .41-.17 .34-.16 .42-.17 .41-.24 .33-.26 .33-.33 .26-.33 .24-.33 .09-.34 .17-.33 .07-.33 .09-.33v-.34l.33-.07-.25-.5-.33-.25 .33-.16 .15-.35-.48.01-.34-.08-.33-.25-.33-.09-.33-.16-.34-.17-.07.33-.34.17-.33-.17h-.33l-.33-.16-.34-.34-.33-.24-.33.08-.33-.08-.34-.09-.33-.08-.33-.33-.59-.59" fill="none" stroke="#000" stroke-width=".07"/>
 <path d="m21.2,29.58-.5-.5v-.33l-.17-.16-.33.16-.67.33 1.58-1.99-.41-.08-.09-.33-.33-.17h-.32l-.34-.09h-.33l-.25.34-.34.16-.33-.33-.33-.08-.33.08-.34.17-.33.16-.33.17-.33-.08-.43.25-.16-.34-.33-.07 .16-.34-.16-.33 .08-.33-.33-.17-.33-.25-.17-.34-.33-.07-.33-.17-.33-.09-.26-.33-.17-.32-.33-.17-.33-.25-.33-.17-.34-.08-.16.34-.33.16 .33.25 .25.49-.33.08v.33l-.09.34-.08.33-.16.33-.09.33-.24.34-.26.33-.33.33-.33.26-.41.24-.43.17-.33.16-.41.17-.42.17-.33.16-.25.33v.34l-.16.33-.33-.25-.08.34-.17.33-.09.33-.07.41-.17.33-.17.34-.25.33-.17.33-.33-.08-.33-.08-.26-.34h-.33l-.33-.24-.34.08-.33.16-.33.34-.17.33-.33.09h-.41l-.08.09v.33l.17.33h.33l.17.33-.25.42-.33.17 .08.33 .33.17 .33.08 .5.09 .34.16 .33.17 .33.33 .26.33 .16.34 .17.33 .08.33 .34.24 .33.26 .58.41 .09.33 .07.33 .09.34 .17.33 .17.33 .24.33 .17.34 .24.33 .17.42 .08.33 .25.33 .16.34 .09.33 .25.33 .33.25 .33.33 .17.33 .09.34 .24.34 .26.33 .33.33 .16.33 .17.41 .24.34h.34l.16.33-.16.33-.17.33v.34l.26.33 .07.33 .34.26 .33.16 .33.17 .33.33 .34.17 .25.33 .24.33 .34.17 .33.08 .33.08 .33.17 .34.16 .33.16 .33.17 .33.16h.34l.34.26 .33.17 .34.07h.33l.33.17 .33.17 .34.16 .33.26 .33.33 .17.33 .32.25 .33.16 .26.33 .33.26 .33.17 .33-.09 .34-.08 .33-.17 .16-.33-.08-.33 .25-.33-.09-.34-.24-.33-.09-.33 .17-.33 .33-.17 .33-.17 .33-.16-.07-.34-.09-.33-.34.09-.33-.25-.33-.08-.33-.17-.34-.16 .34-.09 .33-.08-.24-.33 .07-.42 .34.16 .16.26 .17-.34 .16-.25-.07-.33 .16-1 .41-.41-.16-1v-.58l.42-1.42-1.5-2.33-.42-.08-.33.17-.33.16h-.34l-.33-.08-.17-.34 .09-.33v-1.24l-.09-.33v-.34l-.32-.08-.33.25-.33.17-.33.24-.26.33-.33.09-.33.08h-.34l-.24-.33-.33-.34-.35-.24-.33-.09-.33.09h-.33l.08-.33-.08-.42-.17-.34-.33-.33-.25-.33-.09-.33-.07-.33-.34-.25-.16-.33 .16-.33 .08-.34 .09-.33 .08-.33 .16-.33 .43-.17 .33-.33-.09-.33-.08-.34v-.33l.17-.33 .24-.33 .17-.34 .16-.33 .26-.33 .24-.33 .35-.17 .33-.17 .33-.09h.41 .33l.34-.33 .33-.16 .42-.17h.33l.32.17 .34-.17h.33l.08-.18" fill="none" stroke="#000" stroke-width=".07"/>
 <path d="m38.08,7.91 .33.24h.33 .34l.33.26v.33l.16.33 .35.33 .33.34 .08.33v.33l-.08.33-.09.33v.34l.26-.34 .16-.33h.34l.33.17 .33.16 .24.34 .26.33 .33.17 .08.33 .09.33-.09.33v.34l-.08.33-.33.24-.5.09-.09.33-.08.34-.16.33v.33l.08.33 .08.34 .25.33 .16.33 .34.24 .33.34 .09.33 .16.33 .25.33 .16.34 .26.33-.42.09h-.33l-.34.16-.33.35h-.33-.58l-.33.15-.33.17-.34.16h-.33l-.34-.08-.41-.25-.33-.09-.34-.16-.16-.33-.09-.34-.08-.33-.17-.33v-.33-.34-.33-.33l.08-.33 .09-.34 .08-.33-.08-.33-.25-.33-.25-.34v-.33l.33-.24v-.59l-.33-.17h-.33l-.33.17-.32.15-.19-.33-.26-.33-.33-.24-.33-.26v-.33l.09-.33 .07-.34v-.32l.26-.33h.33 .36 .31l.33-.25-.17-.34-.33-.24v-.33-.35l.33-.33 .33-.08 .34-.16 .33-.34v-.33l.09-.15" fill="none" stroke="#000" stroke-width=".07"/>
 <path d="m42.57,12.55-.09.33v.33l-.08.34-.33.24-.5.09-.09.33-.08.33-.16.34v.33l.07.33 .09.33 .25.34 .16.33 .34.24 .33.34 .09.33 .16.33 .25.33 .16.34 .26.33 .09.1h.33l.33.24 .42-.08 .34-.25v-.33l-.34-.25 .08-.33 .33.08 .34.09 .33-.09 .33-.17h.33l.17.33h.33l.33-.24 .09-.33 .17-.33 .17-.34 .07-.33 .17-.33v-.33l-.33-.34-.17-.33v-.33l-.08-.33-.16-.34v-.33l.07-.33 .34-.17 .25-.33 .17-.33 .16-.34-.33-.08h-.33l-.33-.08-.34-.09-.33-.08-.33-.16-.33.16-.34.08h-.33l-.33.09h-.33l-.34-.17h-.33l-.33.08-.33-.08-.34.08-.08.33-.09.08" fill="none" stroke="#000" stroke-width=".07"/>
 <path d="m46.99,18.39 .33.08 .42.16 .34-.16 .33-.25 .33.08 .33-.08 .34.17 .33.08 .33-.25 .83-1.08 .17-.33 .24-.34 .26-.41 .24-.33 .26-.33-.09-.33-.08-.34h-.33l-.09.34-.08-.34-.25-.33-.34-.25-.33-.25-.24-.33-.34-.33-.33-.26h-.33l-.33-.16-.17-.34-.5.17-.34.08-.17.33-.25.33-.34.17-.07.33v.33l.16.34 .08.33v.33l.17.33 .33.34v.33l-.17.33-.07.33-.17.34-.17.33-.09.33-.33.24 .18.27" fill="none" stroke="#000" stroke-width=".07"/>
 <path d="m23.05,52.8 .5.59 .09.41 .07.33 .17.33 .33.33 .33.26 .34.24-.17.33-.17.43 .09.33-.16.33 .07.33 .09.34 .08.33 .26.33 .24.33 .09.34v.33l.08.33 .16.33 .17.34 .09.33 .07.33-.33.24 .26.34 .33.09 .33.16 .33-.09 .25-.41 .09-.33 .33-.09 .33-.24 .08-.33 .33-.09 .17-.34h.33l.33.17 .34.17 .33.09 .33-.09 .33-.08h.34l.33.24v.34l.17.33 .33.09v-.34l.09-.33 .16-.33 .17-.33h.33 .41 .42 .34l.33.24 .08-.17 .42-1.74v-1.16l.83-1.5 1.33-.16 1.24-.33h1.57l1.51.66 .41.91 .42-.5-.5-.41 .08-.33 .17-.33 .09-.34 .07-.33 .17-.33 .09-.33 .16-.34 .17-.33-.25-.33-.25-.33-.33-.26-.33-.33-.34-.17-.08-.33-.17-.33 .09-.33 .16-.34 .17-.33-.09-.08-2.99-.16-.5-1.75h.33l.17-.34v-.33l-.24-.33 .16-.33v-.34l-.25-.33-.34-.17-.33-.07-.33-.17-.33-.17h-.34l-.33.08h-.33l-.33-.24-.34-.33h-.33l-.33-.09-.33-.17-.34-.24-.24-.34h-.33l-.33-.16-.34-.09h-.33-.33l-.34-.17-.25-.33-.33-.24-.33-.17-.34-.33-.33-.26-.08-.33 .08-.33v-.33l-.08-.34-.16-.33-.17-.33 .17-.33 .16-.34v-.33l-.16-.33-.34.09h-.33l-.33.08h-.33l-.34.08-.33.25-.25.33-.34.26-.33.07-.33.17-.25.33-.33.17-.33.09-.26.33-.24.33h-.33l-.33-.16-.34-.09-.33.09-.33.07-.27.07 1.5,2.33-.42,1.42v.58l.16,1-.41.41-.16,1 .07.33-.16.25-.17.34-.16-.26-.34-.16-.07.42 .24.33-.33.08-.34.09 .34.16 .33.17 .33.08 .33.25 .34-.09 .09.33 .07.34-.33.16-.33.17-.33.17-.17.33 .09.33 .24.33 .09.34 .18.34" fill="none" stroke="#000" stroke-width=".07"/>
 <path d="m41.17,56.29-.41-.91-1.51-.66h-1.57l-1.24.33-1.33.16-.83,1.5v1.16l-.42,1.74-.08.17 .24.17 .33.25 .26.33 .17.34 .33.24 .33.33 .33.34 .34.16 .33.26h.33l.33.16 .34.33h.32l.25.34 .33.07 .34.26 .33.33 .33.17 .33.16 .34.17h.33l.33.08 .33.09 .34.24 .33.26v.33l-.24.33-.17.33-.33.34-.09.33-.17.41-.24.33-.09.33-.08.34v.33l.33-.08h.34l.33.08 .33.16 .33.09h.34l.33.08h.33 .33l.34.09 .33-.26 .33.09h.33l.34-.25 .16-.33 .25-.34 .33-.24 .33-.17 .26-.33v-.33l-.09-.33 .09-.34 .16-.33v-.33-.33-.34-.33-.42l.17-.33 .08-.34-.08-.33-.33-.08h-.42l-.34-.08-.33-.25-.08-.33-.09-.33 .09-.33-.16-.34-.09-.33 .09-.33-.17-.33-.33-.17-.33-.17-.34-.16h-.33l-.33.07h-.33-.34l-.33.17-.33-.08-.42-.16 .09-.34 .07-.33v-.33l-.16-.33 .16-.34v-.33l-.16-.33v-.33-.34l-.17-.25" fill="none" stroke="#000" stroke-width=".07"/>
 <path d="m22.87,52.46 .18.34 .5.59 .09.41 .07.33 .17.33 .33.33 .33.26 .34.24-.17.33-.17.43 .09.33-.16.33 .07.33 .09.34 .08.33 .26.33 .24.33 .09.34v.33l.08.33 .16.33 .17.34 .09.33 .07.33-.33.24 .26.34 .33.09 .33.16 .33-.09 .25-.41 .09.17v.33l-.09,1.57-1.58,1-.25.5 .09.33v.34l-.26.33v.33l.09.33 .17.34 .08.33-.17.33v.33l.25.34 .08.33-.33.25v.34l-.33.33-.25.33-.16.33-.09.34-.17.33-.16.33-.08.33-.09.41-.08.33-.16.34-.17.33 .08.33 .09.33 .16.34 .08.33-.17.33-.16.33v.34l.09.33-.26.33-.33.09-.08.33 .24.34 .34.33 .33.33-.24.33 .16.34 .17.33 .16.33-.08.33 .08.17 .17.33 .24.33 .09.34v.33l.08.33v.33l-.08.17-.33.17v.33l-.17.33-.08.33-.34.17-.07.33 .07.33 .17.34 .17.33-.17.33-.08.33-.25.34-.25.33v.33l.08.33 .09.34-.17.33v.33l.17.33 .17.34 .16.33 .08.33 .09.33-.33.34-.34.24v.33 .33l-.09.34-.07.33-.09.33v.33 .34 .33 .33 .33 .34l.09.33 .16.33 .17.33 .17.34v.33l-.09.33-.25.26v.33l.08.33 .33.25 .17.33v.33 .33l.09.34 .08.33v.33l.33.17 .33-.17 .33.17 .17.33-.33.25-.41.08h-.34l-.33.09 .33.24 .34.17 .33.17 .08.33-.34.33-.07.33v.34l-.09.42 .16.06v.34l.26.33-.09.33-.17.33-.07.34v.33l-.17.33-.09.33v.34 .33l.26.33v.33l-.17.34-.25.33-.17.33-.08.33-.09.34v.33 .33l-.07.33 .24.33 .25.34 .34.07 .33-.16 .33-.25 .17.34v.33l-.09.33 .09.33 .16.34 .08.33 .09.33 .33.17h.34l.33-.09 .33-.08h.33 .34 .33 .41l.16.33-.24.34h-.33l-.33.07-.34.26-.16.33 .07.33v.34 .33 .33l-.07.33h-.34l-.33-.16-.33-.17-.26-.33 .34-.26 .33.09 .33-.5 .09-.33-.09-.33-.33.08-.08.33-.16.33h-.43l-.24.33v.43l-.33-.17-.09-.33 .17-.34v-.33l.16-.33-.33-.17-.08.34 .08.33-.24.33h-.34l.08-.33v-.33h-.33l-.08-.34 .33-.25-.09-.33-.41-.17-.16-.33v-.34l-.26-.33-.16-.41 .09-.33-.34-.33-.09-.34-.33-.25-.08-.33 .08-.33v-.34l-.08-.33-.08-.33-.08-.33-.17-.41v-.34l-.33-.25 .08-.33 .09-.34-.34-.41v-.33l-.09-.33 .34-.17v-.33l-.17-.33-.33-.09-.17.33-.33-.08-.33-.33-.17.33 .09.34-.33.07-.17-.33v-.33l.24-.33 .17-.34v-.33-.33l.33-.08h.34l.33.17v.33l-.08.33h.33l.34.17 .07-.33v-.34l-.16-.33 .25-.33-.16-.33 .07-.34 .09-.33 .25-.33 .33-.17 .09-.33v-.33l-.34-.26-.33-.07-.09-.34v-.33-.42l-.16-.33 .09-.34 .16-.33-.09-.33 .17-.33-.08-.34-.25-.33 .33.17 .17-.33-.34-.17v-.33l.09-.34-.33-.24-.33.17-.09.33-.33.08h-.41l-.17-.34-.33-.24v-.33-.33l.07-.34v-.33l-.07-.33v-.33-.43l.07-.33 .17-.33v-.33l.09-.33-.09-.34-.17-.33-.16-.33-.08-.33v-.34-.33-.33l-.09-.33-.16-.34 .08-.5 .34-.33 .16-.33 .17-.33 .08-.34v-.33l-.08-.33v-.33l.24-.34 .09-.33 .08-.33 .17-.41 .16-.33v-.34-.33l.09-.33v-.33-.33l.17-.34 .16-.33-.16-.33-.09-.33 .09-.34 .24-.33-.17-.33-.07-.33 .07-.34v-.33l-.07-.33-.34-.33-.08-.67-.08-.33-.09-.33v-.43l.09-.33 .16-.33 .08-.33-.24-.34 .16-.33v-.33l-.08-.33-.08-.33v-.34l.08-.33 .08-.33v-.33l.08-.34v-.33-.33l.17-.33 .09-.34v-.41l.16-.42 .17-.33v-.33l-.26-.34-.16-.41 .09-.42 .16-.33 .08-.33-.08-.33v-.34-.33l.08-.33v-.33-.41l.09-.34v-.33l-.09-.33-.24-.33v-.34l.33-.33v-.33l.08-.33 .09-.34v-.33-.33l.07-.33-.07-.42-.09-.34-.25-.33v-.33-.41-.42-.34-.33l.08-.41-.08-.42-.09-.33-.24-.33-.09-.34-.08-.41 .08-.33-.01-.16 .33-.09 .34-.08 .33-.17 .16-.33-.08-.33 .25-.33" fill="none" stroke="#000" stroke-width=".07"/>
 <path d="m20.72,94.01v.33 .34 .33 .33l-.17.33v.34 .33l.09.33 .34-.09h.33l.16-.33v-.33-.33l-.33-.25 .08-.33 .25-.33-.08-.34-.08-.33-.33.08-.26-.08" fill="none" stroke="#000" stroke-width=".07"/>
 <path d="m29.95,114.13-.33.07-.33.26-.26-.33h-.33l-.33-.09-.33-.17-.34.26-.41.16-.33-.09-.33.26 .33.08 .33-.17 .08.33h.33l.34.26 .08-.34 .34-.08h.33l.33.16 .33.17 .49-.25 .01-.49" fill="none" stroke="#000" stroke-width=".07"/>
 <path d="m25.3,112.96-.26.33 .09.34h.33l.34.07 .24-.33-.33-.33-.41-.08" fill="none" stroke="#000" stroke-width=".07"/>
 <path d="m28.87,110.88-.25.33v.33h-.42l-.33-.16-.17.33v.33l.09.33 .33.17 .34-.24 .16.33-.33.17-.09.33 .09.33 .33.24 .34.09h.33l.33.17h.33v-.42l-.08-.5-.08-.58-.09-.33v-.5-.33-.33l-.33.24-.34-.08-.16-.25" fill="none" stroke="#000" stroke-width=".07"/>
 <path d="m24.8,112.8-.26-.34-.33-.16h-.33l-.33-.17-.34-.25v.33l.26.33 .33.09h.33 .34l.33.17" fill="none" stroke="#000" stroke-width=".07"/>
 <path d="m21.97,105.32-.33.16h-.33l.08.33 .16.34-.33.24 .09.33 .16.34 .34-.17 .24.33 .17.33 .33.09v-.42l-.08-.33-.09-.33-.16-.41v-.34l-.25-.49" fill="none" stroke="#000" stroke-width=".07"/>
 <path d="m30.29,114.62 .16.34 .33.24 .34.09 .33-.26-.09-.33-.33-.08h-.74" fill="none" stroke="#000" stroke-width=".07"/>
 <path d="m30.12,115.03-.33-.04h-.34l-.33.13-.16.34 .33.24 .33-.24h.33l.34.07 .16-.33-.33-.17" fill="none" stroke="#000" stroke-width=".07"/>
 <path d="m46.58,65.66 .33-.16 .33.09 .25.33v.33l.16.33v.34 .33l-.07.33v.33l-.26.34-.33.24h-.33l-.34.17-.33.25-.33.17-.17.33-.33.17-.33.07-.33.17-.34.33-.16.34-.25.33-.33.33-.25.33-.34.34-.24.33-.26.33-.24.33-.25.33-.25.34-.16.33-.09.33-.08.33-.09.34-.08.33v.33l-.16.33-.09.34-.08.33v.33l-.09.33v.34 .33l-.08.33-.25.33-.08.34-.09.33v.33l.09.33 .08.34v.33l.09.33 .33.17 .33.16 .34.17 .33.17 .33.16 .24.33-.07.34-.26.33v.33l.33.33 .34.26 .16.33v.33l-.07.34-.17.33-.17.33-.33.33-.25.34-.17.33-.17.33-.24.33h-.33l-.34.08-.42.26-.33.07-.33.09-.33.17-.34.17h-.33l-.42.16-.33.08-.32.09h-.34l-.33.24-.33-.24-.33.16-.34-.25-.42-.24-.16.33 .08.33 .34.24 .07.34-.07.33-.34.25v.34l-.08.33-.08.33 .24.33 .09.34-.33.33-.42.16h-.34-.33l-.33.17h-.33l-.34-.33-.33-.17-.33-.09-.33-.07-.17.33-.08.33 .08.33 .17.34v.33 .33l.33.24 .33.09 .33.25 .34-.25 .33-.16 .09.33 .08.33 .08.33-.33.17h-.33l-.17-.33h-.33-.33l-.33.16 .07.34 .34.16h.33v.34l-.33.07-.34.17-.33.25v.34 .33l.09.33 .08.33 .16.34-.16.33-.34.08v.33 .33l-.33.09-.33-.09h-.33l-.17.33-.33.09-.33.25-.17.33-.08.33-.09.33v.34l.09.33 .08.33 .33.26 .33.16 .34.33 .33.08 .33-.08 .33-.16 .26.33 .08.33v.34l-.25.33v.33l-.33.33-.33.17-.34.24-.33.34-.33.33-.17.33-.25.33h.33l.09.34-.25.33-.17.33v.33l-.33.09-.34-.33-.16.33 .16.33-.16.34-.17.33-.5.83 .33-.09 .26.33 .08.34v.42l.33.16 .33.17 .26.33-.17.33h-.33l-.42-.16-.34.16-.16-.33h-.41-.33-.34-.33l-.33.08-.33.09h-.34l-.33-.17-.09-.33-.08-.33-.16-.34-.09-.33 .09-.33v-.33l-.17-.34-.33.25-.33.16-.34-.07-.25-.34-.24-.33 .07-.33v-.33-.33l.09-.34 .08-.33 .17-.33 .25-.33 .17-.34v-.33l-.26-.33v-.33-.34l.09-.33 .17-.33v-.33l.07-.34 .17-.33 .09-.33-.26-.33v-.34l-.16-.06 .09-.42v-.34l.07-.33 .34-.33-.08-.33-.33-.17-.34-.17-.33-.24 .33-.09h.34l.41-.08 .33-.25-.17-.33-.33-.17-.33.17-.33-.17v-.33l-.08-.33-.09-.34v-.33-.33l-.17-.33-.33-.25-.08-.33v-.33l.25-.26 .09-.33v-.33l-.17-.34-.17-.33-.16-.33-.09-.33v-.34-.33-.33-.33-.34-.33l.09-.33 .07-.33 .09-.34v-.33-.33l.34-.24 .33-.34-.09-.33-.08-.33-.16-.33-.17-.34-.17-.33v-.33l.17-.33-.09-.34-.08-.33v-.33l.25-.33 .25-.34 .08-.33 .17-.33-.17-.33-.17-.34-.07-.33 .07-.33 .34-.17 .08-.33 .17-.33v-.33l.33-.17 .08-.17v-.33l-.08-.33v-.33l-.09-.34-.24-.33-.17-.33-.08-.17 .08-.33-.16-.33-.17-.33-.16-.34 .24-.33-.33-.33-.34-.33-.24-.34 .08-.33 .33-.09 .26-.33-.09-.33v-.34l.16-.33 .17-.33-.08-.33-.16-.34-.09-.33-.08-.33 .17-.33 .16-.34 .08-.33 .09-.41 .08-.33 .16-.33 .17-.33 .09-.34 .16-.33 .25-.33 .33-.33v-.34l.33-.25-.08-.33-.25-.34v-.33l.17-.33-.08-.33-.17-.34-.09-.33v-.33l.26-.33v-.34l-.09-.33 .25-.5 1.58-1 .09-1.57v-.33l-.09-.17 .09-.33 .33-.09 .33-.24 .08-.33 .33-.09 .17-.34h.33l.33.17 .34.17 .33.09 .33-.09 .33-.08h.34l.33.24v.34l.17.33 .33.09v-.34l.09-.33 .16-.33 .17-.33h.33 .41 .42 .34l.33.24 .24.17 .33.25 .26.33 .17.34 .33.24 .33.33 .33.34 .34.16 .33.26h.33l.33.16 .34.33h.32l.25.34 .33.07 .34.26 .33.33 .33.17 .33.16 .34.17h.33l.33.08 .33.09 .34.24 .33.26v.33l-.24.33-.17.33-.33.34-.09.33-.17.41-.24.33-.09.33-.08.34v.33l.33-.08h.34l.33.08 .33.16 .33.09h.34l.33.08h.33 .33l.34.09 .33-.26 .33.09h.33l.34-.25 .16-.33 .25-.34 .33-.24 .33-.17 .26-.33v-.33l-.09-.33 .09-.34 .33-.19" fill="none" stroke="#000" stroke-width=".07"/>
 <path d="m30.12,114.04 .33.25 .33.17h.34 .33l.33.08 .34.16 .41-.08 .33-.08 .33-.08 .33-.09-.07-.33h-.34l-.33-.08h-.33l-.26-.33-.33-.09-.33-.08-.33-.17-.17-.33-.33-.16-.25-.34-.16-.33h-.34l.08-.33v-.33l-.24-.34-.09-.16v.33 .33 .5l.09.33 .08.58 .08.5v.42l.17.08" fill="none" stroke="#000" stroke-width=".07"/>
 <path d="m41.59,73.48-.16.33-.09.33-.08.33-.09.34-.08.33v.33l-.16.33-.09.34-.08.33v.33l-.09.33v.34 .33l-.08.33-.25.33 .09.43v.33l.08.33 .08.33 .34.25 .33.25h.33l.33-.09 .34.09 .24.33 .17.34 .33.16h.33 .33l.34-.16 .33.07 .33.09 .33.08 .34.09h.33l.33-.17 .26-.33 .33-.09 .33-.24 .08-.33 .25-.34 .34-.25v-.33l-.17-.34-.17-.33 .17-.33 .17-.33h.33v-.34l-.33-.33-.26-.33-.24-.33-.26-.34-.33-.24-.33-.26-.33-.16-.34-.25-.33-.25-.17-.33-.24-.34-.33.09-.33-.16-.26-.34-.33-.33-.33-.25-.17-.34h-.33l-.34.17-.33.09-.41.08" fill="none" stroke="#000" stroke-width=".07"/>
</svg>
