<svg version="1.1" id="svg2" xmlSpace="preserve" width="100" height="100" viewBox="0 0 5391.3335 5391.3335" >
  <defs id="defs6" />
  <g id="g10" transform="matrix(1.3333333,0,0,-1.3333333,0,5291.3333)">
    <g id="g12" transform="scale(0.155) translate(-7000, -10000)">
      <path d="m 23398.5,21169.5 h -1422.9 v 1422.9 h 1422.9 v -1422.9" style="fill:#e93d32;fill-opacity:1;fill-rule:nonzero;stroke:none" id="path34" />
      <path d="M 20551.9,14055.7 H 19129 v 1422.9 h 1422.9 v -1422.9" style="fill:#bf1b2c;fill-opacity:1;fill-rule:nonzero;stroke:none" id="path36" />
      <path d="m 24821.4,24015.2 h -1422.9 v 1422.9 h 1422.9 v -1422.9" style="fill:#e93d32;fill-opacity:1;fill-rule:nonzero;stroke:none" id="path38" />
      <path d="m 31934.7,28281.9 h -1422.8 v 1422.9 h 1422.8 v -1422.9" style="fill:#2e2a2b;fill-opacity:1;fill-rule:nonzero;stroke:none" id="path40" />
      <path d="m 27666.1,29704.8 h -1422.8 v 1422.9 h 1422.8 v -1422.9" style="fill:#bf1b2c;fill-opacity:1;fill-rule:nonzero;stroke:none" id="path42" />
      <path d="m 29089,26859.1 h -1422.9 v 1422.8 H 29089 v -1422.8" style="fill:#e93d32;fill-opacity:1;fill-rule:nonzero;stroke:none" id="path44" />
      <path d="m 12014.6,31127.7 h -1422.9 v 1422.8 h 1422.9 v -1422.8" style="fill:#2e2a2b;fill-opacity:1;fill-rule:nonzero;stroke:none" id="path46" />
      <path d="m 13437.5,31127.7 h -1422.9 v 1422.8 h 1422.9 v -1422.8" style="fill:#2e2a2b;fill-opacity:1;fill-rule:nonzero;stroke:none" id="path48" />
      <path d="m 14860.3,31127.7 h -1422.8 v 1422.8 h 1422.8 v -1422.8" style="fill:#2e2a2b;fill-opacity:1;fill-rule:nonzero;stroke:none" id="path50" />
      <path d="m 16283.2,31127.7 h -1422.9 v 1422.8 h 1422.9 v -1422.8" style="fill:#2e2a2b;fill-opacity:1;fill-rule:nonzero;stroke:none" id="path52" />
      <path d="m 24820.4,31127.7 h -1422.9 v 1422.8 h 1422.9 v -1422.8" style="fill:#2e2a2b;fill-opacity:1;fill-rule:nonzero;stroke:none" id="path54" />
      <path d="m 26243.3,31127.7 h -1422.9 v 1422.8 h 1422.9 v -1422.8" style="fill:#2e2a2b;fill-opacity:1;fill-rule:nonzero;stroke:none" id="path56" />
      <path d="m 27666.1,31127.7 h -1422.8 v 1422.8 h 1422.8 v -1422.8" style="fill:#2e2a2b;fill-opacity:1;fill-rule:nonzero;stroke:none" id="path58" />
      <path d="m 29089,31127.7 h -1422.9 v 1422.8 H 29089 v -1422.8" style="fill:#2e2a2b;fill-opacity:1;fill-rule:nonzero;stroke:none" id="path60" />
      <path d="M 10591.7,29704.8 H 9168.85 v 1422.9 h 1422.85 v -1422.9" style="fill:#2e2a2b;fill-opacity:1;fill-rule:nonzero;stroke:none" id="path62" />
      <path d="m 12014.6,29704.8 h -1422.9 v 1422.9 h 1422.9 v -1422.9" style="fill:#e93d32;fill-opacity:1;fill-rule:nonzero;stroke:none" id="path64" />
      <path d="m 13437.5,29704.8 h -1422.9 v 1422.9 h 1422.9 v -1422.9" style="fill:#e93d32;fill-opacity:1;fill-rule:nonzero;stroke:none" id="path66" />
      <path d="m 14860.3,29704.8 h -1422.8 v 1422.9 h 1422.8 v -1422.9" style="fill:#e93d32;fill-opacity:1;fill-rule:nonzero;stroke:none" id="path68" />
      <path d="m 16283.2,29704.8 h -1422.9 v 1422.9 h 1422.9 v -1422.9" style="fill:#e93d32;fill-opacity:1;fill-rule:nonzero;stroke:none" id="path70" />
      <path d="m 17706.1,29704.8 h -1422.9 v 1422.9 h 1422.9 v -1422.9" style="fill:#2e2a2b;fill-opacity:1;fill-rule:nonzero;stroke:none" id="path72" />
      <path d="m 23397.5,29704.8 h -1422.8 v 1422.9 h 1422.8 v -1422.9" style="fill:#2e2a2b;fill-opacity:1;fill-rule:nonzero;stroke:none" id="path74" />
      <path d="m 24820.4,29704.8 h -1422.9 v 1422.9 h 1422.9 v -1422.9" style="fill:#bf1b2c;fill-opacity:1;fill-rule:nonzero;stroke:none" id="path76" />
      <path d="m 26243.3,29704.8 h -1422.9 v 1422.9 h 1422.9 v -1422.9" style="fill:#bf1b2c;fill-opacity:1;fill-rule:nonzero;stroke:none" id="path78" />
      <path d="m 29089,29704.8 h -1422.9 v 1422.9 H 29089 v -1422.9" style="fill:#bf1b2c;fill-opacity:1;fill-rule:nonzero;stroke:none" id="path80" />
      <path d="M 30511.9,29704.8 H 29089 v 1422.9 h 1422.9 v -1422.9" style="fill:#2e2a2b;fill-opacity:1;fill-rule:nonzero;stroke:none" id="path82" />
      <path d="M 9168.85,28281.9 H 7745.98 v 1422.9 h 1422.87 v -1422.9" style="fill:#2e2a2b;fill-opacity:1;fill-rule:nonzero;stroke:none" id="path84" />
      <path d="M 10591.7,28281.9 H 9168.85 v 1422.9 h 1422.85 v -1422.9" style="fill:#e93d32;fill-opacity:1;fill-rule:nonzero;stroke:none" id="path86" />
      <path d="m 12014.6,28281.9 h -1422.9 v 1422.9 h 1422.9 v -1422.9" style="fill:#e93d32;fill-opacity:1;fill-rule:nonzero;stroke:none" id="path88" />
      <path d="m 13437.5,28281.9 h -1422.9 v 1422.9 h 1422.9 v -1422.9" style="fill:#fcd0c4;fill-opacity:1;fill-rule:nonzero;stroke:none" id="path90" />
      <path d="m 14860.3,28281.9 h -1422.8 v 1422.9 h 1422.8 v -1422.9" style="fill:#f8a48f;fill-opacity:1;fill-rule:nonzero;stroke:none" id="path92" />
      <path d="m 16283.2,28281.9 h -1422.9 v 1422.9 h 1422.9 v -1422.9" style="fill:#e93d32;fill-opacity:1;fill-rule:nonzero;stroke:none" id="path94" />
      <path d="m 17706.1,28281.9 h -1422.9 v 1422.9 h 1422.9 v -1422.9" style="fill:#e93d32;fill-opacity:1;fill-rule:nonzero;stroke:none" id="path96" />
      <path d="m 19128.9,28281.9 h -1422.8 v 1422.9 h 1422.8 v -1422.9" style="fill:#2e2a2b;fill-opacity:1;fill-rule:nonzero;stroke:none" id="path98" />
      <path d="m 21974.7,28281.9 h -1422.9 v 1422.9 h 1422.9 v -1422.9" style="fill:#2e2a2b;fill-opacity:1;fill-rule:nonzero;stroke:none" id="path100" />
      <path d="m 23397.5,28281.9 h -1422.8 v 1422.9 h 1422.8 v -1422.9" style="fill:#bf1b2c;fill-opacity:1;fill-rule:nonzero;stroke:none" id="path102" />
      <path d="m 24820.4,28281.9 h -1422.9 v 1422.9 h 1422.9 v -1422.9" style="fill:#e93d32;fill-opacity:1;fill-rule:nonzero;stroke:none" id="path104" />
      <path d="m 26243.3,28281.9 h -1422.9 v 1422.9 h 1422.9 v -1422.9" style="fill:#e93d32;fill-opacity:1;fill-rule:nonzero;stroke:none" id="path106" />
      <path d="m 29089,28281.9 h -1422.9 v 1422.9 H 29089 v -1422.9" style="fill:#bf1b2c;fill-opacity:1;fill-rule:nonzero;stroke:none" id="path108" />
      <path d="M 30511.9,28281.9 H 29089 v 1422.9 h 1422.9 v -1422.9" style="fill:#bf1b2c;fill-opacity:1;fill-rule:nonzero;stroke:none" id="path110" />
      <path d="M 9168.85,26859.1 H 7745.98 v 1422.8 h 1422.87 v -1422.8" style="fill:#2e2a2b;fill-opacity:1;fill-rule:nonzero;stroke:none" id="path112" />
      <path d="M 10591.7,26859.1 H 9168.85 v 1422.8 h 1422.85 v -1422.8" style="fill:#e93d32;fill-opacity:1;fill-rule:nonzero;stroke:none" id="path114" />
      <path d="m 12014.6,26859.1 h -1422.9 v 1422.8 h 1422.9 v -1422.8" style="fill:#fcd0c4;fill-opacity:1;fill-rule:nonzero;stroke:none" id="path116" />
      <path d="m 13437.5,26859.1 h -1422.9 v 1422.8 h 1422.9 v -1422.8" style="fill:#f8a48f;fill-opacity:1;fill-rule:nonzero;stroke:none" id="path118" />
      <path d="m 14860.3,26859.1 h -1422.8 v 1422.8 h 1422.8 v -1422.8" style="fill:#e93d32;fill-opacity:1;fill-rule:nonzero;stroke:none" id="path120" />
      <path d="m 16283.2,26859.1 h -1422.9 v 1422.8 h 1422.9 v -1422.8" style="fill:#e93d32;fill-opacity:1;fill-rule:nonzero;stroke:none" id="path122" />
      <path d="m 17706.1,26859.1 h -1422.9 v 1422.8 h 1422.9 v -1422.8" style="fill:#e93d32;fill-opacity:1;fill-rule:nonzero;stroke:none" id="path124" />
      <path d="m 19128.9,26859.1 h -1422.8 v 1422.8 h 1422.8 v -1422.8" style="fill:#e93d32;fill-opacity:1;fill-rule:nonzero;stroke:none" id="path126" />
      <path d="m 21974.7,26859.1 h -1422.9 v 1422.8 h 1422.9 v -1422.8" style="fill:#bf1b2c;fill-opacity:1;fill-rule:nonzero;stroke:none" id="path128" />
      <path d="m 23397.5,26859.1 h -1422.8 v 1422.8 h 1422.8 v -1422.8" style="fill:#e93d32;fill-opacity:1;fill-rule:nonzero;stroke:none" id="path130" />
      <path d="m 24820.4,26859.1 h -1422.9 v 1422.8 h 1422.9 v -1422.8" style="fill:#e93d32;fill-opacity:1;fill-rule:nonzero;stroke:none" id="path132" />
      <path d="m 26243.3,26859.1 h -1422.9 v 1422.8 h 1422.9 v -1422.8" style="fill:#e93d32;fill-opacity:1;fill-rule:nonzero;stroke:none" id="path134" />
      <path d="m 27666.1,26859.1 h -1422.8 v 1422.8 h 1422.8 v -1422.8" style="fill:#e93d32;fill-opacity:1;fill-rule:nonzero;stroke:none" id="path136" />
      <path d="M 30511.9,26859.1 H 29089 v 1422.8 h 1422.9 v -1422.8" style="fill:#bf1b2c;fill-opacity:1;fill-rule:nonzero;stroke:none" id="path138" />
      <path d="m 31934.7,26859.1 h -1422.8 v 1422.8 h 1422.8 v -1422.8" style="fill:#2e2a2b;fill-opacity:1;fill-rule:nonzero;stroke:none" id="path140" />
      <path d="M 9169.83,25438.1 H 7746.96 V 26861 h 1422.87 v -1422.9" style="fill:#2e2a2b;fill-opacity:1;fill-rule:nonzero;stroke:none" id="path142" />
      <path d="M 10592.7,25438.1 H 9169.83 V 26861 h 1422.87 v -1422.9" style="fill:#e93d32;fill-opacity:1;fill-rule:nonzero;stroke:none" id="path144" />
      <path d="M 12015.6,25438.1 H 10592.7 V 26861 h 1422.9 v -1422.9" style="fill:#e93d32;fill-opacity:1;fill-rule:nonzero;stroke:none" id="path146" />
      <path d="M 13438.4,25438.1 H 12015.6 V 26861 h 1422.8 v -1422.9" style="fill:#e93d32;fill-opacity:1;fill-rule:nonzero;stroke:none" id="path148" />
      <path d="M 14861.3,25438.1 H 13438.4 V 26861 h 1422.9 v -1422.9" style="fill:#e93d32;fill-opacity:1;fill-rule:nonzero;stroke:none" id="path150" />
      <path d="M 16284.2,25438.1 H 14861.3 V 26861 h 1422.9 v -1422.9" style="fill:#e93d32;fill-opacity:1;fill-rule:nonzero;stroke:none" id="path152" />
      <path d="M 17707,25438.1 H 16284.2 V 26861 H 17707 v -1422.9" style="fill:#e93d32;fill-opacity:1;fill-rule:nonzero;stroke:none" id="path154" />
      <path d="M 19129.9,25438.1 H 17707 V 26861 h 1422.9 v -1422.9" style="fill:#e93d32;fill-opacity:1;fill-rule:nonzero;stroke:none" id="path156" />
      <path d="M 20552.8,25438.1 H 19129.9 V 26861 h 1422.9 v -1422.9" style="fill:#bf1b2c;fill-opacity:1;fill-rule:nonzero;stroke:none" id="path158" />
      <path d="M 21975.6,25438.1 H 20552.8 V 26861 h 1422.8 v -1422.9" style="fill:#e93d32;fill-opacity:1;fill-rule:nonzero;stroke:none" id="path160" />
      <path d="M 23398.5,25438.1 H 21975.6 V 26861 h 1422.9 v -1422.9" style="fill:#e93d32;fill-opacity:1;fill-rule:nonzero;stroke:none" id="path162" />
      <path d="M 24821.4,25438.1 H 23398.5 V 26861 h 1422.9 v -1422.9" style="fill:#e93d32;fill-opacity:1;fill-rule:nonzero;stroke:none" id="path164" />
      <path d="M 26244.3,25438.1 H 24821.4 V 26861 h 1422.9 v -1422.9" style="fill:#e93d32;fill-opacity:1;fill-rule:nonzero;stroke:none" id="path166" />
      <path d="M 27667.1,25438.1 H 26244.3 V 26861 h 1422.8 v -1422.9" style="fill:#e93d32;fill-opacity:1;fill-rule:nonzero;stroke:none" id="path168" />
      <path d="M 29090,25438.1 H 27667.1 V 26861 H 29090 v -1422.9" style="fill:#e93d32;fill-opacity:1;fill-rule:nonzero;stroke:none" id="path170" />
      <path d="M 30512.9,25438.1 H 29090 V 26861 h 1422.9 v -1422.9" style="fill:#bf1b2c;fill-opacity:1;fill-rule:nonzero;stroke:none" id="path172" />
      <path d="M 31935.7,25438.1 H 30512.9 V 26861 h 1422.8 v -1422.9" style="fill:#2e2a2b;fill-opacity:1;fill-rule:nonzero;stroke:none" id="path174" />
      <path d="M 10592.7,24015.2 H 9169.83 v 1422.9 h 1422.87 v -1422.9" style="fill:#2e2a2b;fill-opacity:1;fill-rule:nonzero;stroke:none" id="path176" />
      <path d="m 12015.6,24015.2 h -1422.9 v 1422.9 h 1422.9 v -1422.9" style="fill:#e93d32;fill-opacity:1;fill-rule:nonzero;stroke:none" id="path178" />
      <path d="m 13438.4,24015.2 h -1422.8 v 1422.9 h 1422.8 v -1422.9" style="fill:#e93d32;fill-opacity:1;fill-rule:nonzero;stroke:none" id="path180" />
      <path d="m 14861.3,24015.2 h -1422.9 v 1422.9 h 1422.9 v -1422.9" style="fill:#e93d32;fill-opacity:1;fill-rule:nonzero;stroke:none" id="path182" />
      <path d="m 16284.2,24015.2 h -1422.9 v 1422.9 h 1422.9 v -1422.9" style="fill:#e93d32;fill-opacity:1;fill-rule:nonzero;stroke:none" id="path184" />
      <path d="m 17707,24015.2 h -1422.8 v 1422.9 H 17707 v -1422.9" style="fill:#e93d32;fill-opacity:1;fill-rule:nonzero;stroke:none" id="path186" />
      <path d="m 19130,24015.2 h -1423 v 1422.9 h 1423 v -1422.9" style="fill:#e93d32;fill-opacity:1;fill-rule:nonzero;stroke:none" id="path188" />
      <path d="M 20552.8,24015.2 H 19130 v 1422.9 h 1422.8 v -1422.9" style="fill:#e93d32;fill-opacity:1;fill-rule:nonzero;stroke:none" id="path190" />
      <path d="m 21975.6,24015.2 h -1422.8 v 1422.9 h 1422.8 v -1422.9" style="fill:#e93d32;fill-opacity:1;fill-rule:nonzero;stroke:none" id="path192" />
      <path d="m 23398.5,24015.2 h -1422.9 v 1422.9 h 1422.9 v -1422.9" style="fill:#e93d32;fill-opacity:1;fill-rule:nonzero;stroke:none" id="path194" />
      <path d="m 26244.3,24015.2 h -1422.9 v 1422.9 h 1422.9 v -1422.9" style="fill:#e93d32;fill-opacity:1;fill-rule:nonzero;stroke:none" id="path196" />
      <path d="m 27667.1,24015.2 h -1422.8 v 1422.9 h 1422.8 v -1422.9" style="fill:#e93d32;fill-opacity:1;fill-rule:nonzero;stroke:none" id="path198" />
      <path d="m 29090,24015.2 h -1422.9 v 1422.9 H 29090 v -1422.9" style="fill:#bf1b2c;fill-opacity:1;fill-rule:nonzero;stroke:none" id="path200" />
      <path d="M 30512.9,24015.2 H 29090 v 1422.9 h 1422.9 v -1422.9" style="fill:#2e2a2b;fill-opacity:1;fill-rule:nonzero;stroke:none" id="path202" />
      <path d="M 10592.7,22592.4 H 9169.83 v 1422.8 h 1422.87 v -1422.8" style="fill:#2e2a2b;fill-opacity:1;fill-rule:nonzero;stroke:none" id="path204" />
      <path d="m 12015.6,22592.4 h -1422.9 v 1422.8 h 1422.9 v -1422.8" style="fill:#e93d32;fill-opacity:1;fill-rule:nonzero;stroke:none" id="path206" />
      <path d="m 13438.4,22592.4 h -1422.8 v 1422.8 h 1422.8 v -1422.8" style="fill:#e93d32;fill-opacity:1;fill-rule:nonzero;stroke:none" id="path208" />
      <path d="m 14861.3,22592.4 h -1422.9 v 1422.8 h 1422.9 v -1422.8" style="fill:#e93d32;fill-opacity:1;fill-rule:nonzero;stroke:none" id="path210" />
      <path d="m 16284.2,22592.4 h -1422.9 v 1422.8 h 1422.9 v -1422.8" style="fill:#e93d32;fill-opacity:1;fill-rule:nonzero;stroke:none" id="path212" />
      <path d="m 17707,22592.4 h -1422.8 v 1422.8 H 17707 v -1422.8" style="fill:#e93d32;fill-opacity:1;fill-rule:nonzero;stroke:none" id="path214" />
      <path d="M 19129.9,22592.4 H 17707 v 1422.8 h 1422.9 v -1422.8" style="fill:#e93d32;fill-opacity:1;fill-rule:nonzero;stroke:none" id="path216" />
      <path d="m 20552.8,22592.4 h -1422.9 v 1422.8 h 1422.9 v -1422.8" style="fill:#e93d32;fill-opacity:1;fill-rule:nonzero;stroke:none" id="path218" />
      <path d="m 21975.6,22592.4 h -1422.8 v 1422.8 h 1422.8 v -1422.8" style="fill:#e93d32;fill-opacity:1;fill-rule:nonzero;stroke:none" id="path220" />
      <path d="m 23398.5,22592.4 h -1422.9 v 1422.8 h 1422.9 v -1422.8" style="fill:#e93d32;fill-opacity:1;fill-rule:nonzero;stroke:none" id="path222" />
      <path d="m 24821.4,22592.4 h -1422.9 v 1422.8 h 1422.9 v -1422.8" style="fill:#e93d32;fill-opacity:1;fill-rule:nonzero;stroke:none" id="path224" />
      <path d="m 26244.3,22592.4 h -1422.9 v 1422.8 h 1422.9 v -1422.8" style="fill:#e93d32;fill-opacity:1;fill-rule:nonzero;stroke:none" id="path226" />
      <path d="m 27667.1,22592.4 h -1422.8 v 1422.8 h 1422.8 v -1422.8" style="fill:#e93d32;fill-opacity:1;fill-rule:nonzero;stroke:none" id="path228" />
      <path d="m 29090,22592.4 h -1422.9 v 1422.8 H 29090 v -1422.8" style="fill:#bf1b2c;fill-opacity:1;fill-rule:nonzero;stroke:none" id="path230" />
      <path d="M 30512.9,22592.4 H 29090 v 1422.8 h 1422.9 v -1422.8" style="fill:#2e2a2b;fill-opacity:1;fill-rule:nonzero;stroke:none" id="path232" />
      <path d="m 12015.6,21169.5 h -1422.9 v 1422.9 h 1422.9 v -1422.9" style="fill:#2e2a2b;fill-opacity:1;fill-rule:nonzero;stroke:none" id="path234" />
      <path d="m 13438.4,21169.5 h -1422.8 v 1422.9 h 1422.8 v -1422.9" style="fill:#e93d32;fill-opacity:1;fill-rule:nonzero;stroke:none" id="path236" />
      <path d="m 14861.3,21169.5 h -1422.9 v 1422.9 h 1422.9 v -1422.9" style="fill:#e93d32;fill-opacity:1;fill-rule:nonzero;stroke:none" id="path238" />
      <path d="m 16284.2,21169.5 h -1422.9 v 1422.9 h 1422.9 v -1422.9" style="fill:#e93d32;fill-opacity:1;fill-rule:nonzero;stroke:none" id="path240" />
      <path d="m 17707,21169.5 h -1422.8 v 1422.9 H 17707 v -1422.9" style="fill:#e93d32;fill-opacity:1;fill-rule:nonzero;stroke:none" id="path242" />
      <path d="m 19130,21169.5 h -1423 v 1422.9 h 1423 v -1422.9" style="fill:#e93d32;fill-opacity:1;fill-rule:nonzero;stroke:none" id="path244" />
      <path d="m 21975.6,21169.5 h -1422.8 v 1422.9 h 1422.8 v -1422.9" style="fill:#e93d32;fill-opacity:1;fill-rule:nonzero;stroke:none" id="path246" />
      <path d="m 24821.4,21169.5 h -1422.9 v 1422.9 h 1422.9 v -1422.9" style="fill:#e93d32;fill-opacity:1;fill-rule:nonzero;stroke:none" id="path248" />
      <path d="m 26244.3,21169.5 h -1422.9 v 1422.9 h 1422.9 v -1422.9" style="fill:#e93d32;fill-opacity:1;fill-rule:nonzero;stroke:none" id="path250" />
      <path d="m 27667.1,21169.5 h -1422.8 v 1422.9 h 1422.8 v -1422.9" style="fill:#bf1b2c;fill-opacity:1;fill-rule:nonzero;stroke:none" id="path252" />
      <path d="m 29090,21169.5 h -1422.9 v 1422.9 H 29090 v -1422.9" style="fill:#2e2a2b;fill-opacity:1;fill-rule:nonzero;stroke:none" id="path254" />
      <path d="m 13436.6,19745.3 h -1422.9 v 1422.9 h 1422.9 v -1422.9" style="fill:#2e2a2b;fill-opacity:1;fill-rule:nonzero;stroke:none" id="path256" />
      <path d="m 14859.4,19745.3 h -1422.8 v 1422.9 h 1422.8 v -1422.9" style="fill:#e93d32;fill-opacity:1;fill-rule:nonzero;stroke:none" id="path258" />
      <path d="m 16282.3,19745.3 h -1422.9 v 1422.9 h 1422.9 v -1422.9" style="fill:#e93d32;fill-opacity:1;fill-rule:nonzero;stroke:none" id="path260" />
      <path d="m 17705.2,19745.3 h -1422.9 v 1422.9 h 1422.9 v -1422.9" style="fill:#e93d32;fill-opacity:1;fill-rule:nonzero;stroke:none" id="path262" />
      <path d="m 19128,19745.3 h -1422.8 v 1422.9 H 19128 v -1422.9" style="fill:#e93d32;fill-opacity:1;fill-rule:nonzero;stroke:none" id="path264" />
      <path d="M 20550.9,19745.3 H 19128 v 1422.9 h 1422.9 v -1422.9" style="fill:#e93d32;fill-opacity:1;fill-rule:nonzero;stroke:none" id="path266" />
      <path d="m 21973.8,19745.3 h -1422.9 v 1422.9 h 1422.9 v -1422.9" style="fill:#e93d32;fill-opacity:1;fill-rule:nonzero;stroke:none" id="path268" />
      <path d="m 23396.6,19745.3 h -1422.8 v 1422.9 h 1422.8 v -1422.9" style="fill:#e93d32;fill-opacity:1;fill-rule:nonzero;stroke:none" id="path270" />
      <path d="m 24819.5,19745.3 h -1422.9 v 1422.9 h 1422.9 v -1422.9" style="fill:#e93d32;fill-opacity:1;fill-rule:nonzero;stroke:none" id="path272" />
      <path d="m 26242.4,19745.3 h -1422.9 v 1422.9 h 1422.9 v -1422.9" style="fill:#bf1b2c;fill-opacity:1;fill-rule:nonzero;stroke:none" id="path274" />
      <path d="m 27665.2,19745.3 h -1422.8 v 1422.9 h 1422.8 v -1422.9" style="fill:#2e2a2b;fill-opacity:1;fill-rule:nonzero;stroke:none" id="path276" />
      <path d="m 14859.4,18322.5 h -1422.8 v 1422.8 h 1422.8 v -1422.8" style="fill:#2e2a2b;fill-opacity:1;fill-rule:nonzero;stroke:none" id="path278" />
      <path d="m 16282.3,18322.5 h -1422.9 v 1422.8 h 1422.9 v -1422.8" style="fill:#e93d32;fill-opacity:1;fill-rule:nonzero;stroke:none" id="path280" />
      <path d="m 17705.2,18322.5 h -1422.9 v 1422.8 h 1422.9 v -1422.8" style="fill:#e93d32;fill-opacity:1;fill-rule:nonzero;stroke:none" id="path282" />
      <path d="m 19128,18322.5 h -1422.8 v 1422.8 H 19128 v -1422.8" style="fill:#e93d32;fill-opacity:1;fill-rule:nonzero;stroke:none" id="path284" />
      <path d="M 20550.9,18322.5 H 19128 v 1422.8 h 1422.9 v -1422.8" style="fill:#e93d32;fill-opacity:1;fill-rule:nonzero;stroke:none" id="path286" />
      <path d="m 21973.8,18322.5 h -1422.9 v 1422.8 h 1422.9 v -1422.8" style="fill:#e93d32;fill-opacity:1;fill-rule:nonzero;stroke:none" id="path288" />
      <path d="m 23396.6,18322.5 h -1422.8 v 1422.8 h 1422.8 v -1422.8" style="fill:#e93d32;fill-opacity:1;fill-rule:nonzero;stroke:none" id="path290" />
      <path d="m 24819.5,18322.5 h -1422.9 v 1422.8 h 1422.9 v -1422.8" style="fill:#bf1b2c;fill-opacity:1;fill-rule:nonzero;stroke:none" id="path292" />
      <path d="m 26242.4,18322.5 h -1422.9 v 1422.8 h 1422.9 v -1422.8" style="fill:#2e2a2b;fill-opacity:1;fill-rule:nonzero;stroke:none" id="path294" />
      <path d="m 16282.3,16899.6 h -1422.9 v 1422.9 h 1422.9 v -1422.9" style="fill:#2e2a2b;fill-opacity:1;fill-rule:nonzero;stroke:none" id="path296" />
      <path d="m 17705.2,16899.6 h -1422.9 v 1422.9 h 1422.9 v -1422.9" style="fill:#e93d32;fill-opacity:1;fill-rule:nonzero;stroke:none" id="path298" />
      <path d="m 19128,16899.6 h -1422.8 v 1422.9 H 19128 v -1422.9" style="fill:#e93d32;fill-opacity:1;fill-rule:nonzero;stroke:none" id="path300" />
      <path d="M 20550.9,16899.6 H 19128 v 1422.9 h 1422.9 v -1422.9" style="fill:#e93d32;fill-opacity:1;fill-rule:nonzero;stroke:none" id="path302" />
      <path d="m 21973.8,16899.6 h -1422.9 v 1422.9 h 1422.9 v -1422.9" style="fill:#e93d32;fill-opacity:1;fill-rule:nonzero;stroke:none" id="path304" />
      <path d="m 23396.6,16899.6 h -1422.8 v 1422.9 h 1422.8 v -1422.9" style="fill:#bf1b2c;fill-opacity:1;fill-rule:nonzero;stroke:none" id="path306" />
      <path d="m 24819.5,16899.6 h -1422.9 v 1422.9 h 1422.9 v -1422.9" style="fill:#2e2a2b;fill-opacity:1;fill-rule:nonzero;stroke:none" id="path308" />
      <path d="m 17705.2,15476.7 h -1422.9 v 1422.9 h 1422.9 v -1422.9" style="fill:#2e2a2b;fill-opacity:1;fill-rule:nonzero;stroke:none" id="path310" />
      <path d="m 19128,15476.7 h -1422.8 v 1422.9 H 19128 v -1422.9" style="fill:#e93d32;fill-opacity:1;fill-rule:nonzero;stroke:none" id="path312" />
      <path d="M 20550.9,15476.7 H 19128 v 1422.9 h 1422.9 v -1422.9" style="fill:#e93d32;fill-opacity:1;fill-rule:nonzero;stroke:none" id="path314" />
      <path d="m 21973.8,15476.7 h -1422.9 v 1422.9 h 1422.9 v -1422.9" style="fill:#bf1b2c;fill-opacity:1;fill-rule:nonzero;stroke:none" id="path316" />
      <path d="m 23396.6,15476.7 h -1422.8 v 1422.9 h 1422.8 v -1422.9" style="fill:#2e2a2b;fill-opacity:1;fill-rule:nonzero;stroke:none" id="path318" />
      <path d="m 19129,14055.7 h -1422.9 v 1422.9 H 19129 v -1422.9" style="fill:#2e2a2b;fill-opacity:1;fill-rule:nonzero;stroke:none" id="path320" />
      <path d="m 21974.8,14055.7 h -1422.9 v 1422.9 h 1422.9 v -1422.9" style="fill:#2e2a2b;fill-opacity:1;fill-rule:nonzero;stroke:none" id="path322" />
      <path d="m 20551.9,12632.9 h -1422.8 v 1422.8 h 1422.8 v -1422.8" style="fill:#2e2a2b;fill-opacity:1;fill-rule:nonzero;stroke:none" id="path324" />
      <path d="m 27666.1,28281.9 h -1422.8 v 1422.9 h 1422.8 v -1422.9" style="fill:#e93d32;fill-opacity:1;fill-rule:nonzero;stroke:none" id="path326" />
      <path d="m 20551.8,26859.1 h -1422.9 v 1422.8 h 1422.9 v -1422.8" style="fill:#2e2a2b;fill-opacity:1;fill-rule:nonzero;stroke:none" id="path328" />
      <path d="M 20552.8,21169.5 H 19130 v 1422.9 h 1422.8 v -1422.9" style="fill:#e93d32;fill-opacity:1;fill-rule:nonzero;stroke:none" id="path330" />
    </g>
  </g>
</svg>
